<?xml version="1.0" encoding="UTF-8" standalone="no"?>
<svg
   viewBox="0 0 90 71"
   version="1.1"
   xml:space="preserve"
   x="0px"
   y="0px"
   fill-rule="evenodd"
   clip-rule="evenodd"
   stroke-linejoin="round"
   stroke-miterlimit="2"
   id="svg5"
   sodipodi:docname="noun-strong-5298715.svg"
   width="90"
   height="71"
   inkscape:version="1.3 (0e150ed6c4, 2023-07-21)"
   xmlns:inkscape="http://www.inkscape.org/namespaces/inkscape"
   xmlns:sodipodi="http://sodipodi.sourceforge.net/DTD/sodipodi-0.dtd"
   xmlns="http://www.w3.org/2000/svg"
   xmlns:svg="http://www.w3.org/2000/svg"
   xmlns:serif="http://www.serif.com/"><defs
     id="defs5" /><sodipodi:namedview
     id="namedview5"
     pagecolor="#ffffff"
     bordercolor="#000000"
     borderopacity="0.25"
     inkscape:showpageshadow="2"
     inkscape:pageopacity="0.0"
     inkscape:pagecheckerboard="0"
     inkscape:deskcolor="#d1d1d1"
     inkscape:zoom="6.8416667"
     inkscape:cx="48.014616"
     inkscape:cy="60"
     inkscape:window-width="1920"
     inkscape:window-height="1017"
     inkscape:window-x="-8"
     inkscape:window-y="-8"
     inkscape:window-maximized="1"
     inkscape:current-layer="svg5" /><rect
     serif:id="strong 1"
     x="0"
     y="0"
     width="96"
     height="96"
     fill="none"
     id="rect1" /><path
     d="m 46.907551,35.101543 -23.1207,-22.098762 c -0.257784,-0.245966 -0.373061,-0.571422 -0.3186,-0.893129 9.08e-4,-0.003 9.08e-4,-0.0052 0.0018,-0.0082 0.234184,-1.446554 0.457476,-4.0929461 -0.336754,-6.2968981 -0.610876,-1.692522 -1.802674,-3.124828 -3.835901,-3.803486 -1.28166,-0.427442 -2.934565,-0.411694 -4.734515,0.02025 -2.35455,0.565424 -5.0050079,1.835752 -7.2751426,3.451783 -2.2973655,1.635529 -4.1962547,3.62351 -5.0694532,5.5507501 -0.663522,1.465302 -0.7524757,2.907357 -0.1297998,4.194183 1.0837828,2.239197 2.407196,3.510275 3.7887014,4.735609 1.8072125,1.604034 3.719717,3.123328 5.1384382,7.309262 1.20269,3.54777 5.117561,16.083825 12.046872,25.701275 3.92304,5.445014 8.628509,10.109383 12.313734,13.38194 0.0036,0.003 0.0064,0.006 0.01,0.009 3.797778,3.296554 9.959183,3.759992 14.412315,1.091103 0.511029,-0.251216 0.985752,-0.536928 1.438689,-0.811391 2.094951,-1.271078 4.467655,-2.194953 6.987404,-2.722132 12.012381,-2.506911 21.55675,-7.071543 29.256691,-13.15772 0.543707,-0.428942 0.562768,-1.141346 0.04266,-1.590535 -0.519199,-0.44844 -1.381505,-0.464188 -1.924304,-0.03525 -7.379527,5.832712 -16.530865,10.200121 -28.0422,12.602796 0,0 0,0 0,0 -2.861042,0.59767 -5.55416,1.646778 -7.93231,3.089583 0,0 0,0 0,0 -0.397569,0.241467 -0.812384,0.494933 -1.267137,0.715403 -0.04085,0.0195 -0.07988,0.04124 -0.118,0.06374 C 44.888847,67.633644 40.231485,67.29394 37.363182,64.808026 33.78325,61.628456 29.212119,57.101318 25.401633,51.813783 18.62209,42.402556 14.814327,30.128216 13.63796,26.656185 12.298208,22.70347 10.568149,20.84972 8.8462595,19.288431 7.3313235,17.915367 5.7955107,16.816016 4.617328,14.382595 4.2351902,13.593701 4.3613592,12.711071 4.7689124,11.812692 5.5023265,10.194411 7.13617,8.5506329 9.065013,7.1768189 c 1.956981,-1.392562 4.227116,-2.507661 6.257621,-2.995095 1.123721,-0.269214 2.154858,-0.362201 2.955441,-0.09449 1.232644,0.410944 1.875289,1.33332 2.24472,2.359181 0.676229,1.874746 0.447491,4.1259421 0.247799,5.3565261 -0.161569,0.962119 0.186077,1.935488 0.955799,2.670388 l 23.121608,22.099512 c 0.491061,0.469437 1.351551,0.52118 1.919766,0.115485 0.569122,-0.406445 0.631753,-1.117349 0.139784,-1.586786 z M 85.921918,7.5142729 C 71.135635,13.74818 58.081225,21.413644 48.074842,31.596517 c -0.472907,0.482185 -0.383954,1.190839 0.199692,1.582286 0.582737,0.391447 1.441413,0.317207 1.915227,-0.164228 9.769477,-9.942905 22.532517,-17.409646 36.96934,-23.4965731 0.669875,-0.281961 0.935829,-0.95987 0.594537,-1.513295 -0.342199,-0.552675 -1.162752,-0.772395 -1.83172,-0.490434 z"
     id="path1"
     style="stroke-width:0.825031" /><path
     d="m 41.213607,33.095564 c 4.8153,4.029206 8.161048,8.773064 9.250277,14.613274 0.115277,0.613418 0.810568,1.034861 1.553059,0.940373 0.743399,-0.09449 1.253521,-0.669659 1.138244,-1.283076 -1.179998,-6.330644 -4.78353,-11.483197 -10.00366,-15.851357 -0.528276,-0.44169 -1.390583,-0.44619 -1.925213,-0.0097 -0.535537,0.436441 -0.540983,1.148845 -0.01271,1.590535 z"
     id="path2"
     style="stroke-width:0.825031" /><path
     d="m 49.316563,11.335007 -6.086067,7.822192 c -0.406646,0.52193 -0.223292,1.218585 0.408461,1.55454 0.63266,0.335954 1.474997,0.184475 1.881643,-0.338204 0,0 4.557515,-5.856708 6.535374,-8.399615 0.449307,-0.577422 0.481076,-1.310072 0.08351,-1.912241 C 51.741008,9.4595099 50.97764,9.0853109 50.147103,9.0853109 h -4.475827 l 4.802592,-5.627989 c 0.432969,-0.506931 0.285923,-1.209586 -0.328584,-1.567288 -0.613599,-0.357702 -1.464105,-0.236218 -1.897073,0.271463 0,0 -3.523656,4.128942 -5.306361,6.218159 -0.488338,0.572923 -0.550061,1.322072 -0.159754,1.9437381 0.3894,0.621666 1.166383,1.011613 2.014166,1.011613 z"
     id="path3"
     style="stroke-width:0.825031" /><path
     d="m 14.834296,20.042829 c 0,0 1.244444,4.016457 3.49461,6.898318 0.407553,0.521179 1.250798,0.671909 1.881643,0.335204 0.631753,-0.336704 0.813291,-1.03336 0.406645,-1.555289 -2.032319,-2.602149 -3.144241,-6.233158 -3.144241,-6.233158 -0.185169,-0.601418 -0.926752,-0.965869 -1.65472,-0.81289 -0.727968,0.15373 -1.169106,0.766397 -0.983937,1.367815 z"
     id="path4"
     style="stroke-width:0.825031" /><text
     x="0"
     y="111"
     fill="#000000"
     font-size="5px"
     font-weight="bold"
     font-family="'Helvetica Neue', Helvetica, Arial-Unicode, Arial, Sans-serif"
     id="text4">Created by Jackvisual assets</text><text
     x="0"
     y="116"
     fill="#000000"
     font-size="5px"
     font-weight="bold"
     font-family="'Helvetica Neue', Helvetica, Arial-Unicode, Arial, Sans-serif"
     id="text5">from the Noun Project</text></svg>
