<?xml version="1.0" encoding="UTF-8" standalone="no"?>
<svg
   viewBox="0 0 19 25.5"
   version="1.1"
   x="0px"
   y="0px"
   id="svg5"
   sodipodi:docname="noun-audio-file-254296.svg"
   width="19"
   height="25.5"
   inkscape:version="1.3 (0e150ed6c4, 2023-07-21)"
   xmlns:inkscape="http://www.inkscape.org/namespaces/inkscape"
   xmlns:sodipodi="http://sodipodi.sourceforge.net/DTD/sodipodi-0.dtd"
   xmlns="http://www.w3.org/2000/svg"
   xmlns:svg="http://www.w3.org/2000/svg"
   xmlns:rdf="http://www.w3.org/1999/02/22-rdf-syntax-ns#"
   xmlns:cc="http://creativecommons.org/ns#"
   xmlns:dc="http://purl.org/dc/elements/1.1/"
   xmlns:sketch="http://www.bohemiancoding.com/sketch/ns">
  <defs
     id="defs5" />
  <sodipodi:namedview
     id="namedview5"
     pagecolor="#ffffff"
     bordercolor="#000000"
     borderopacity="0.25"
     inkscape:showpageshadow="2"
     inkscape:pageopacity="0.0"
     inkscape:pagecheckerboard="0"
     inkscape:deskcolor="#d1d1d1"
     inkscape:zoom="21.893333"
     inkscape:cx="15.004568"
     inkscape:cy="18.75"
     inkscape:window-width="1920"
     inkscape:window-height="1017"
     inkscape:window-x="-8"
     inkscape:window-y="-8"
     inkscape:window-maximized="1"
     inkscape:current-layer="svg5" />
  <title
     id="title1">file_050-audio_file-format-document-paper-music-mp3-wma-wav</title>
  <desc
     id="desc1">Created with Sketch.</desc>
  <g
     stroke="none"
     stroke-width="1"
     fill="none"
     fill-rule="evenodd"
     sketch:type="MSPage"
     id="g4"
     transform="translate(-5.4354446,-2.3294763)">
    <g
       sketch:type="MSArtboardGroup"
       transform="translate(-90,-225)"
       fill="#000000"
       id="g3">
      <g
         sketch:type="MSLayerGroup"
         transform="translate(96,228)"
         id="g2">
        <path
           d="M 0,23.5 C 0,23.776142 0.22385763,24 0.5,24 h 17 C 17.776142,24 18,23.776142 18,23.5 V 5.1999998 C 18,5.0673915 17.947322,4.9402146 17.853553,4.8464464 l -4.7,-4.69999983 C 13.059784,0.05267841 12.932608,0 12.799999,0 H 0.5 C 0.22385763,0 0,0.22385763 0,0.5 Z M 17,23 H 1 V 1 H 12 V 5.5 C 12,5.7761424 12.223858,6 12.5,6 H 17 Z M 16.59,5 H 13 V 1.4099998 Z"
           sketch:type="MSShapeGroup"
           id="path1" />
        <path
           d="m 4,13.5 v 2 C 4,15.776142 4.2238576,16 4.5,16 H 6 l 2.1719106,1.877303 C 8.4955245,18.158706 9,17.928852 9,17.5 v -6 C 9,11.071148 8.4955245,10.841294 8.1719106,11.122697 L 6,13 H 4.5 C 4.2238576,13 4,13.223858 4,13.5 Z M 6.2000008,14 c 0.1205803,0 0.2370988,-0.04358 0.3280894,-0.122697 L 8,12.600006 v 3.799988 L 6.5280902,15.122697 C 6.4370996,15.043575 6.3205811,15 6.2000008,15 H 5 V 14 Z M 12,14.5 C 12,13.671573 11.328427,13 10.5,13 10.223858,13 10,13.223858 10,13.5 c 0,0.276142 0.223858,0.5 0.5,0.5 0.276142,0 0.5,0.223858 0.5,0.5 0,0.276142 -0.223858,0.5 -0.5,0.5 -0.276142,0 -0.5,0.223858 -0.5,0.5 0,0.276142 0.223858,0.5 0.5,0.5 0.828427,0 1.5,-0.671573 1.5,-1.5 z m 2,0 C 14,12.567003 12.432997,11 10.5,11 10.223858,11 10,11.223858 10,11.5 c 0,0.276142 0.223858,0.5 0.5,0.5 1.380712,0 2.5,1.119288 2.5,2.5 0,1.380712 -1.119288,2.5 -2.5,2.5 -0.276142,0 -0.5,0.223858 -0.5,0.5 0,0.276142 0.223858,0.5 0.5,0.5 1.932997,0 3.5,-1.567003 3.5,-3.5 z"
           sketch:type="MSShapeGroup"
           id="path2" />
      </g>
    </g>
  </g>
  <text
     x="0"
     y="45"
     fill="#000000"
     font-size="5px"
     font-weight="bold"
     font-family="'Helvetica Neue', Helvetica, Arial-Unicode, Arial, Sans-serif"
     id="text4">Created by Pham Thi Dieu Linh</text>
  <text
     x="0"
     y="50"
     fill="#000000"
     font-size="5px"
     font-weight="bold"
     font-family="'Helvetica Neue', Helvetica, Arial-Unicode, Arial, Sans-serif"
     id="text5">from the Noun Project</text>
  <metadata
     id="metadata5">
    <rdf:RDF>
      <cc:Work
         rdf:about="">
        <dc:title>file_050-audio_file-format-document-paper-music-mp3-wma-wav</dc:title>
      </cc:Work>
    </rdf:RDF>
  </metadata>
</svg>
