<?xml version="1.0" encoding="UTF-8" standalone="no"?>
<svg
   version="1.1"
   x="0px"
   y="0px"
   viewBox="0 0 77 51"
   enable-background="new 0 0 100 100"
   xml:space="preserve"
   id="svg3"
   sodipodi:docname="noun-augmented-reality-2263032.svg"
   width="77"
   height="51"
   inkscape:version="1.3 (0e150ed6c4, 2023-07-21)"
   xmlns:inkscape="http://www.inkscape.org/namespaces/inkscape"
   xmlns:sodipodi="http://sodipodi.sourceforge.net/DTD/sodipodi-0.dtd"
   xmlns="http://www.w3.org/2000/svg"
   xmlns:svg="http://www.w3.org/2000/svg"><defs
     id="defs3"><clipPath
       clipPathUnits="userSpaceOnUse"
       id="clipPath3"><rect
         style="opacity:0.5;fill:#000000"
         id="rect4"
         width="90.742996"
         height="63.794155"
         x="3.1973202"
         y="18.879416" /></clipPath><clipPath
       clipPathUnits="userSpaceOnUse"
       id="clipPath4"><rect
         style="opacity:0.5;fill:#000000"
         id="rect5"
         width="90.742996"
         height="63.794155"
         x="3.1973202"
         y="18.879416" /></clipPath></defs><sodipodi:namedview
     id="namedview3"
     pagecolor="#ffffff"
     bordercolor="#000000"
     borderopacity="0.25"
     inkscape:showpageshadow="2"
     inkscape:pageopacity="0.0"
     inkscape:pagecheckerboard="0"
     inkscape:deskcolor="#d1d1d1"
     inkscape:zoom="6.568"
     inkscape:cx="50.015225"
     inkscape:cy="62.5"
     inkscape:window-width="1920"
     inkscape:window-height="1017"
     inkscape:window-x="-8"
     inkscape:window-y="-8"
     inkscape:window-maximized="1"
     inkscape:current-layer="svg3" /><g
     id="g2"
     transform="translate(-11.723508,-24.665043)"><path
       d="m 86.817093,67.616585 c 0.07894,-0.131447 0.127205,-0.283173 0.127205,-0.447274 V 33.670765 C 86.944298,28.042744 64.872246,26 50.036182,26 50.023743,26 50.01226,26.003109 50,26.003588 49.98774,26.003109 49.9762,26 49.963818,26 35.127811,26 13.055702,28.042744 13.055702,33.670765 v 33.498546 c 0,0.164101 0.04826,0.315827 0.127145,0.447335 0.847968,3.785026 12.353279,5.614265 19.319368,6.378029 0.03212,0.0035 0.06429,0.0051 0.09599,0.0052 l 0.0013,1.22e-4 3.58e-4,-6.1e-5 7.18e-4,6.1e-5 c 0.05819,0 0.115184,-0.0063 0.170742,-0.01717 0.01956,-0.0038 0.03756,-0.01094 0.0567,-0.01602 0.03492,-0.0093 0.06991,-0.01849 0.103222,-0.03182 0.02201,-0.0089 0.04222,-0.02063 0.06339,-0.03116 0.02817,-0.01399 0.05645,-0.02769 0.08283,-0.04461 0.02057,-0.0131 0.03911,-0.02829 0.05843,-0.043 0.02452,-0.01854 0.04868,-0.03714 0.07105,-0.05819 0.01758,-0.01639 0.03319,-0.03415 0.04928,-0.05191 0.02087,-0.02296 0.0409,-0.04617 0.05933,-0.07141 0.01417,-0.01926 0.02655,-0.0394 0.03905,-0.05986 0.01621,-0.02644 0.03128,-0.05335 0.04474,-0.08163 0.01046,-0.02225 0.01962,-0.04498 0.02835,-0.06824 0.0107,-0.02882 0.01986,-0.05807 0.02757,-0.08827 0.0064,-0.025 0.01166,-0.05012 0.01585,-0.07589 0.0024,-0.01466 0.0074,-0.02823 0.009,-0.04318 0.0019,-0.01692 -4.16e-4,-0.03319 4.8e-4,-0.05006 8.32e-4,-0.01567 0.0047,-0.0305 0.0047,-0.04641 V 62.022053 C 38.554913,61.523583 44.239811,61.257511 50,61.256496 c 5.76025,0.001 11.44503,0.267086 16.514656,0.765618 V 73.12117 c 0,0.01591 0.0039,0.03074 0.0048,0.04641 9e-4,0.01687 -0.0015,0.03313 4.19e-4,0.05006 0.0016,0.01495 0.0066,0.02853 0.009,0.04318 0.0042,0.02577 0.0095,0.05089 0.01585,0.07589 0.0077,0.03014 0.01681,0.05933 0.02751,0.08809 0.0088,0.02333 0.01801,0.04617 0.02853,0.06854 0.01334,0.02822 0.02841,0.05508 0.04455,0.08151 0.01262,0.02045 0.02506,0.0406 0.03917,0.05986 0.01836,0.02524 0.03851,0.04845 0.05926,0.07141 0.01609,0.01776 0.03176,0.03552 0.04922,0.05191 0.02242,0.02105 0.04659,0.03965 0.07117,0.05819 0.01926,0.01471 0.0378,0.0299 0.0583,0.043 0.02637,0.01686 0.05454,0.03049 0.08271,0.04456 0.02123,0.01058 0.0415,0.0223 0.06364,0.03121 0.03325,0.01334 0.06818,0.02243 0.103164,0.03176 0.01907,0.0051 0.03719,0.01226 0.05675,0.01608 C 67.284226,73.993721 67.341095,74 67.399643,74 l 6.03e-4,-6.1e-5 5.95e-4,6.1e-5 c 0,0 4.19e-4,-1.22e-4 8.39e-4,-1.22e-4 0.03181,-6.1e-5 0.06387,-0.0017 0.09598,-0.0052 6.966149,-0.763764 18.471459,-2.593125 19.319428,-6.37809 z M 68.286186,72.135292 V 40.411694 c 5.555245,-0.612461 13.413254,-1.856156 16.886582,-4.180516 v 30.591027 c -0.04635,0.106567 -0.07237,0.223785 -0.07237,0.347106 0,1.26307 -5.22805,3.600586 -16.814217,4.965981 z m -53.38659,-4.96598 c 0,-0.123322 -0.02608,-0.24054 -0.07236,-0.347046 V 36.231178 c 3.473326,2.324421 11.331221,3.568055 16.886523,4.180516 V 72.135292 C 20.127527,70.769897 14.899596,68.432381 14.899596,67.169312 Z M 85.172768,33.670765 c 0,1.24543 -4.849968,3.725403 -17.864686,5.078182 -0.01286,0.0013 -0.02434,0.0057 -0.03702,0.0076 -0.03421,0.005 -0.0674,0.01184 -0.100289,0.02069 -0.02434,0.0065 -0.04809,0.01358 -0.07147,0.02195 -0.03068,0.01112 -0.06016,0.0238 -0.08923,0.03798 -0.02315,0.0113 -0.04557,0.02314 -0.06746,0.0363 -0.0265,0.01603 -0.05167,0.03343 -0.07631,0.05203 -0.02081,0.01573 -0.04079,0.03175 -0.05998,0.0491 -0.02273,0.02051 -0.04384,0.04222 -0.06435,0.06501 -0.01722,0.01914 -0.03361,0.03851 -0.04909,0.05909 -0.01843,0.0244 -0.03499,0.04976 -0.05084,0.07607 -0.01346,0.02237 -0.02602,0.04485 -0.03744,0.06842 -0.0131,0.02697 -0.02435,0.0546 -0.03469,0.08307 -0.0095,0.02595 -0.01776,0.05209 -0.02476,0.079 -0.0072,0.02793 -0.01262,0.05627 -0.01711,0.08522 -0.0045,0.02948 -0.0075,0.05903 -0.009,0.08929 -6.56e-4,0.01442 -0.0044,0.02805 -0.0044,0.0427 v 13.172062 l -9.315208,-8.269051 c -0.335206,-0.297226 -0.842106,-0.29884 -1.17875,-0.0022 l -5.99546,5.280799 -6.080204,-5.513496 c -0.332157,-0.301594 -0.839718,-0.307098 -1.178867,-0.01465 l -6.80761,5.873279 c -0.369232,0.31852 -0.408344,0.873684 -0.08719,1.23993 0.175045,0.199867 0.421382,0.302131 0.668792,0.302131 0.206208,0 0.413132,-0.07093 0.58094,-0.215595 l 6.211895,-5.359142 5.360218,4.860729 -3.530559,3.109657 c -0.365704,0.322228 -0.398895,0.877632 -0.07404,1.240643 0.174748,0.195682 0.418331,0.295498 0.662575,0.295498 0.209015,0 0.419048,-0.07303 0.587876,-0.221638 l 10.267421,-9.043697 9.908169,8.795391 v 5.103058 c -5.071003,-0.491951 -10.736523,-0.754734 -16.47393,-0.757065 -0.0016,0 -0.0031,-4.81e-4 -0.0045,-4.81e-4 -0.01208,0 -0.0241,2.4e-4 -0.03618,2.4e-4 -0.01208,0 -0.0241,-2.4e-4 -0.03618,-2.4e-4 -0.0016,0 -0.003,4.81e-4 -0.0047,4.81e-4 -5.737526,0.0023 -11.402927,0.265114 -16.473873,0.757003 V 39.622452 c 0,-0.01465 -0.0036,-0.02829 -0.0044,-0.0427 -0.0015,-0.03026 -0.0045,-0.0598 -0.0091,-0.08929 -0.0044,-0.02895 -0.0099,-0.05723 -0.0171,-0.08522 -0.007,-0.02697 -0.01525,-0.05311 -0.0247,-0.07912 -0.01028,-0.0284 -0.02153,-0.05591 -0.03457,-0.08289 -0.01155,-0.02362 -0.02404,-0.04611 -0.03756,-0.06854 -0.01585,-0.02625 -0.03235,-0.05161 -0.05083,-0.07601 -0.01543,-0.02057 -0.03182,-0.03995 -0.04904,-0.05908 -0.02051,-0.02279 -0.04162,-0.04449 -0.06441,-0.06501 -0.01926,-0.01734 -0.03923,-0.03337 -0.05999,-0.0491 -0.02464,-0.0186 -0.04976,-0.036 -0.07637,-0.05203 -0.02183,-0.01316 -0.04425,-0.025 -0.06746,-0.03636 -0.029,-0.01411 -0.05843,-0.02679 -0.08905,-0.03791 -0.0235,-0.0084 -0.04718,-0.01543 -0.07153,-0.02195 -0.03289,-0.0089 -0.06614,-0.01573 -0.100354,-0.02069 -0.01268,-0.0019 -0.02416,-0.0063 -0.03696,-0.0076 -13.014719,-1.3526 -17.864686,-3.832752 -17.864686,-5.078182 0,-0.774647 2.070492,-2.476086 9.830367,-3.939203 6.75097,-1.272879 15.738096,-1.973847 25.306219,-1.973847 0.01238,0 0.02392,-0.0032 0.03618,-0.0036 0.01226,4.79e-4 0.02374,0.0036 0.03618,0.0036 9.568004,0 18.555187,0.700968 25.306156,1.973847 7.760055,1.463117 9.830429,3.164556 9.830429,3.939203 z"
       id="path1" /><path
       d="m 54.25243,39.398869 c 0,-2.326336 -1.907467,-4.219147 -4.252399,-4.219147 -2.344876,0 -4.252461,1.892811 -4.252461,4.219147 0,2.326335 1.907585,4.21891 4.252461,4.21891 2.344932,0 4.252399,-1.892575 4.252399,-4.21891 z m -1.77153,0 c 0,1.357265 -1.112782,2.461257 -2.48087,2.461257 -1.368087,0 -2.480873,-1.103992 -2.480873,-2.461257 0,-1.357201 1.112786,-2.461434 2.480873,-2.461434 1.368088,0 2.48087,1.104233 2.48087,2.461434 z"
       id="path2" /></g><text
     x="0"
     y="115"
     fill="#000000"
     font-size="5px"
     font-weight="bold"
     font-family="'Helvetica Neue', Helvetica, Arial-Unicode, Arial, Sans-serif"
     id="text2"
     clip-path="url(#clipPath4)">Created by KARNA RAJA</text><text
     x="0"
     y="120"
     fill="#000000"
     font-size="5px"
     font-weight="bold"
     font-family="'Helvetica Neue', Helvetica, Arial-Unicode, Arial, Sans-serif"
     id="text3"
     clip-path="url(#clipPath3)">from the Noun Project</text></svg>
