<?xml version="1.0" encoding="UTF-8" standalone="no"?>
<svg
   version="1.1"
   x="0px"
   y="0px"
   viewBox="0 0 66 66.5"
   xml:space="preserve"
   id="svg14"
   sodipodi:docname="noun-eye-tracking-4531359.svg"
   width="66"
   height="66.5"
   inkscape:version="1.3 (0e150ed6c4, 2023-07-21)"
   xmlns:inkscape="http://www.inkscape.org/namespaces/inkscape"
   xmlns:sodipodi="http://sodipodi.sourceforge.net/DTD/sodipodi-0.dtd"
   xmlns="http://www.w3.org/2000/svg"
   xmlns:svg="http://www.w3.org/2000/svg"><defs
     id="defs14" /><sodipodi:namedview
     id="namedview14"
     pagecolor="#ffffff"
     bordercolor="#000000"
     borderopacity="0.25"
     inkscape:showpageshadow="2"
     inkscape:pageopacity="0.0"
     inkscape:pagecheckerboard="0"
     inkscape:deskcolor="#d1d1d1"
     inkscape:zoom="9.9515152"
     inkscape:cx="33.010049"
     inkscape:cy="65.366931"
     inkscape:window-width="1920"
     inkscape:window-height="1017"
     inkscape:window-x="-8"
     inkscape:window-y="-8"
     inkscape:window-maximized="1"
     inkscape:current-layer="svg14" /><path
     d="m 1.97,10.7 c 0.54,0 0.97,-0.43 0.97,-0.97 V 2.94 H 9.73 C 10.27,2.94 10.7,2.51 10.7,1.97 10.7,1.43 10.26,1 9.73,1 H 1.97 C 1.43,1 1,1.43 1,1.97 v 7.76 c 0,0.53 0.43,0.97 0.97,0.97 z"
     id="path1" /><path
     d="M 9.73,63.06 H 2.94 V 56.27 C 2.94,55.73 2.51,55.3 1.97,55.3 1.43,55.3 1,55.74 1,56.27 v 7.76 C 1,64.57 1.43,65 1.97,65 h 7.76 c 0.54,0 0.97,-0.43 0.97,-0.97 0,-0.54 -0.44,-0.97 -0.97,-0.97 z"
     id="path2" /><path
     d="m 64.03,1 h -7.76 c -0.54,0 -0.97,0.43 -0.97,0.97 0,0.54 0.43,0.97 0.97,0.97 h 6.79 v 6.79 c 0,0.54 0.43,0.97 0.97,0.97 0.54,0 0.97,-0.43 0.97,-0.97 V 1.97 C 65,1.43 64.57,1 64.03,1 Z"
     id="path3" /><path
     d="m 64.03,55.3 c -0.54,0 -0.97,0.43 -0.97,0.97 v 6.79 h -6.79 c -0.54,0 -0.97,0.43 -0.97,0.97 0,0.54 0.43,0.97 0.97,0.97 h 7.76 C 64.57,65 65,64.57 65,64.03 V 56.27 C 65,55.74 64.57,55.3 64.03,55.3 Z"
     id="path4" /><path
     d="m 48.38,7.3 c 5.69,0 10.31,4.63 10.31,10.31 0,0.54 0.43,0.97 0.97,0.97 0.54,0 0.97,-0.43 0.97,-0.97 0,-6.76 -5.5,-12.25 -12.25,-12.25 -0.54,0 -0.97,0.43 -0.97,0.97 0,0.54 0.44,0.97 0.97,0.97 z"
     id="path5" /><path
     d="m 47.68,11.53 c 0,0.54 0.43,0.97 0.97,0.97 2.67,0 4.85,2.17 4.85,4.85 0,0.54 0.43,0.97 0.97,0.97 0.54,0 0.97,-0.43 0.97,-0.97 0,-3.74 -3.05,-6.79 -6.79,-6.79 -0.54,0 -0.97,0.44 -0.97,0.97 z"
     id="path6" /><path
     d="m 5.36,17.62 c 0,0.54 0.43,0.97 0.97,0.97 0.54,0 0.97,-0.43 0.97,-0.97 0,-5.69 4.63,-10.31 10.31,-10.31 0.54,0 0.97,-0.43 0.97,-0.97 C 18.58,5.8 18.15,5.37 17.61,5.37 10.86,5.36 5.36,10.86 5.36,17.62 Z"
     id="path7" /><path
     d="m 17.35,10.56 c -3.74,0 -6.79,3.04 -6.79,6.79 0,0.54 0.43,0.97 0.97,0.97 0.54,0 0.97,-0.43 0.97,-0.97 0,-2.67 2.18,-4.85 4.85,-4.85 0.54,0 0.97,-0.43 0.97,-0.97 0,-0.53 -0.43,-0.97 -0.97,-0.97 z"
     id="path8" /><path
     d="m 60.64,48.38 c 0,-0.54 -0.43,-0.97 -0.97,-0.97 -0.54,0 -0.97,0.43 -0.97,0.97 0,5.69 -4.63,10.31 -10.31,10.31 -0.54,0 -0.97,0.43 -0.97,0.97 0,0.54 0.43,0.97 0.97,0.97 6.75,0.01 12.25,-5.49 12.25,-12.25 z"
     id="path9" /><path
     d="m 53.5,48.65 c 0,2.67 -2.18,4.85 -4.85,4.85 -0.54,0 -0.97,0.43 -0.97,0.97 0,0.54 0.43,0.97 0.97,0.97 3.74,0 6.79,-3.05 6.79,-6.79 0,-0.54 -0.43,-0.97 -0.97,-0.97 -0.54,0 -0.97,0.43 -0.97,0.97 z"
     id="path10" /><path
     d="m 17.62,58.7 c -5.69,0 -10.31,-4.63 -10.31,-10.31 0,-0.54 -0.43,-0.97 -0.97,-0.97 -0.54,0 -0.97,0.43 -0.97,0.97 0,6.76 5.5,12.25 12.25,12.25 0.54,0 0.97,-0.43 0.97,-0.97 0,-0.54 -0.44,-0.97 -0.97,-0.97 z"
     id="path11" /><path
     d="m 18.32,54.47 c 0,-0.54 -0.43,-0.97 -0.97,-0.97 -2.67,0 -4.85,-2.18 -4.85,-4.85 0,-0.54 -0.43,-0.97 -0.97,-0.97 -0.54,0 -0.97,0.43 -0.97,0.97 0,3.74 3.05,6.79 6.79,6.79 0.54,0 0.97,-0.44 0.97,-0.97 z"
     id="path12" /><path
     d="m 64.78,33.61 c 0.29,-0.36 0.29,-0.87 0,-1.22 C 56.53,22.23 45.62,16.53 33.97,16.23 V 13.1 c 0,-0.54 -0.43,-0.97 -0.97,-0.97 -0.54,0 -0.97,0.43 -0.97,0.97 v 3.12 c -11.66,0.3 -22.57,6 -30.81,16.16 -0.29,0.36 -0.29,0.87 0,1.22 8.25,10.16 19.16,15.86 30.81,16.16 v 3.12 c 0,0.54 0.43,0.97 0.97,0.97 0.54,0 0.97,-0.43 0.97,-0.97 V 49.76 C 45.63,49.47 56.54,43.77 64.78,33.61 Z m -46.6,0.36 h 2.21 c 0.54,0 0.97,-0.43 0.97,-0.97 0,-0.54 -0.43,-0.97 -0.97,-0.97 h -2.21 c 0.22,-3.37 1.56,-6.43 3.66,-8.82 l 4.35,4.35 c -1.2,1.49 -1.92,3.38 -1.92,5.44 0,2.06 0.72,3.95 1.92,5.44 l -4.35,4.35 C 19.74,40.4 18.4,37.34 18.18,33.97 Z M 33,21.36 c 0.54,0 0.97,-0.43 0.97,-0.97 v -2.21 c 3.37,0.22 6.43,1.56 8.82,3.66 l -4.35,4.35 c -1.49,-1.2 -3.38,-1.91 -5.44,-1.91 -2.06,0 -3.95,0.72 -5.44,1.92 l -4.35,-4.35 c 2.39,-2.1 5.45,-3.44 8.82,-3.66 v 2.21 c 0,0.53 0.43,0.96 0.97,0.96 z m 14.82,10.67 h -2.21 c -0.54,0 -0.97,0.43 -0.97,0.97 0,0.54 0.43,0.97 0.97,0.97 h 2.21 c -0.22,3.37 -1.56,6.43 -3.66,8.82 l -4.35,-4.35 c 1.2,-1.49 1.92,-3.38 1.92,-5.44 0,-2.06 -0.72,-3.95 -1.92,-5.44 l 4.35,-4.35 c 2.1,2.39 3.44,5.45 3.66,8.82 z M 26.21,33 c 0,-3.74 3.05,-6.79 6.79,-6.79 3.74,0 6.79,3.05 6.79,6.79 0,3.74 -3.05,6.79 -6.79,6.79 -3.74,0 -6.79,-3.05 -6.79,-6.79 z m 1.35,6.81 c 1.49,1.2 3.38,1.92 5.44,1.92 2.06,0 3.95,-0.72 5.44,-1.92 l 4.35,4.35 c -2.39,2.1 -5.45,3.44 -8.82,3.66 v -2.21 c 0,-0.54 -0.43,-0.97 -0.97,-0.97 -0.54,0 -0.97,0.43 -0.97,0.97 v 2.21 C 28.66,47.6 25.6,46.26 23.21,44.16 Z M 62.77,33 c -5.56,6.63 -12.31,11.2 -19.65,13.38 0.6,-0.46 1.19,-0.94 1.72,-1.48 0.01,-0.01 0.03,-0.01 0.04,-0.03 0.01,-0.01 0.01,-0.03 0.03,-0.04 2.81,-2.82 4.6,-6.64 4.85,-10.87 h 3.14 c 0.54,0 0.97,-0.43 0.97,-0.97 0,-0.54 -0.43,-0.97 -0.97,-0.97 H 49.76 C 49.52,27.79 47.72,23.98 44.92,21.15 44.91,21.14 44.9,21.12 44.89,21.1 44.88,21.08 44.86,21.08 44.84,21.07 44.31,20.54 43.73,20.06 43.12,19.6 50.46,21.8 57.22,26.37 62.77,33 Z M 3.23,33 c 5.56,-6.63 12.31,-11.19 19.65,-13.38 -0.6,0.46 -1.18,0.94 -1.72,1.47 -0.01,0.01 -0.03,0.02 -0.04,0.03 -0.01,0.01 -0.02,0.03 -0.03,0.04 -2.81,2.82 -4.6,6.64 -4.84,10.87 H 13.1 c -0.54,0 -0.97,0.43 -0.97,0.97 0,0.54 0.43,0.97 0.97,0.97 h 3.14 c 0.24,4.23 2.04,8.05 4.85,10.88 0.01,0.01 0.01,0.03 0.02,0.04 0.01,0.01 0.03,0.01 0.04,0.02 0.54,0.53 1.12,1.02 1.72,1.48 C 15.54,44.19 8.78,39.63 3.23,33 Z"
     id="path13" /><text
     x="0"
     y="81"
     fill="#000000"
     font-size="5px"
     font-weight="bold"
     font-family="'Helvetica Neue', Helvetica, Arial-Unicode, Arial, Sans-serif"
     id="text13">Created by Candy Design</text><text
     x="0"
     y="86"
     fill="#000000"
     font-size="5px"
     font-weight="bold"
     font-family="'Helvetica Neue', Helvetica, Arial-Unicode, Arial, Sans-serif"
     id="text14">from the Noun Project</text></svg>
