<?xml version="1.0" encoding="UTF-8" standalone="no"?>
<svg
   data-name="Layer 1"
   viewBox="0 0 431 348"
   x="0px"
   y="0px"
   version="1.1"
   id="svg2"
   sodipodi:docname="noun-bar-chart-6057687.svg"
   width="431"
   height="348"
   inkscape:version="1.3 (0e150ed6c4, 2023-07-21)"
   xmlns:inkscape="http://www.inkscape.org/namespaces/inkscape"
   xmlns:sodipodi="http://sodipodi.sourceforge.net/DTD/sodipodi-0.dtd"
   xmlns="http://www.w3.org/2000/svg"
   xmlns:svg="http://www.w3.org/2000/svg">
  <defs
     id="defs2" />
  <sodipodi:namedview
     id="namedview2"
     pagecolor="#ffffff"
     bordercolor="#000000"
     borderopacity="0.25"
     inkscape:showpageshadow="2"
     inkscape:pageopacity="0.0"
     inkscape:pagecheckerboard="0"
     inkscape:deskcolor="#d1d1d1"
     inkscape:zoom="1.2828125"
     inkscape:cx="256.07795"
     inkscape:cy="320"
     inkscape:window-width="1920"
     inkscape:window-height="1017"
     inkscape:window-x="-8"
     inkscape:window-y="-8"
     inkscape:window-maximized="1"
     inkscape:current-layer="svg2" />
  <path
     d="m 117.07561,175.32688 h 33.17099 c 3.25808,0 5.9234,2.64587 5.9234,5.78197 v 62.32997 c 0,3.23431 -2.66532,5.88018 -5.9234,5.88018 h -33.17099 c -3.25808,0 -5.82446,-2.64587 -5.82446,-5.88018 v -62.32997 c 0,-3.1361 2.56638,-5.78197 5.82446,-5.78197 z M 20.91964,256.96367 H 40.466404 V 37.043877 c 0,-15.190266 11.254015,-29.7929403 27.346543,-29.7929403 H 364.7732 c 15.99273,0 27.2476,14.6026743 27.2476,29.7929403 V 256.96367 h 19.54677 c 6.41722,0 11.15594,5.58639 11.15594,11.66216 v 29.98937 c 0,21.07045 -15.4989,41.65153 -37.90971,41.65153 H 47.673413 c -22.409952,0 -37.9097102,-20.58108 -37.9097102,-41.65153 v -29.98937 c 0,-6.07577 4.8376522,-11.66216 11.1559372,-11.66216 z m 31.295471,0 H 168.31359 c 2.4683,0 4.5417,1.46984 5.42957,3.62633 l 7.70084,14.99469 h 69.60007 l 7.99679,-15.48492 c 0.98681,-1.96006 3.06021,-3.1361 5.13361,-3.1361 H 380.3719 V 37.043877 c 0,-8.819851 -6.02233,-18.229002 -15.5987,-18.229002 H 67.812947 c -9.575506,0 -15.597836,9.408297 -15.597836,18.229002 z M 164.75956,268.52846 H 21.511549 v 30.08674 c 0,14.70089 10.267213,29.98937 26.161864,29.98937 H 384.8138 c 15.89465,0 26.16186,-15.28848 26.16186,-29.98937 V 268.52846 H 267.72765 l -7.70084,14.99469 c -0.88787,2.1565 -2.96127,3.62633 -5.42957,3.62633 H 177.8891 c -2.0734,0 -4.1468,-1.17604 -5.13361,-3.1361 l -7.99679,-15.48406 z m 85.98769,-172.681873 30.20974,-35.67313 c -2.4683,-3.42989 -3.85086,-7.64381 -3.85086,-12.15238 0,-11.858587 9.77425,-21.56068 21.71911,-21.56068 11.94486,0 21.7191,9.702093 21.7191,21.56068 0,11.85859 -9.77338,21.56068 -21.7191,21.56068 -3.15914,0 -6.22021,-0.68581 -8.98446,-1.96006 l -29.41994,34.790883 c 3.15914,3.72369 5.03467,8.52606 5.03467,13.81865 0,11.85859 -9.67531,21.56068 -21.71911,21.56068 -11.94572,0 -21.62016,-9.70209 -21.62016,-21.56068 0,-2.8423 0.49383,-5.58639 1.57957,-8.13404 L 205.4318,94.082957 c -4.14681,4.99794 -10.16828,7.840253 -16.68444,7.840253 -3.94893,0 -7.70084,-1.07782 -10.95806,-2.939673 l -26.16186,34.398873 c 2.36935,3.4299 3.75105,7.54646 3.75105,12.05417 0,11.85859 -9.6753,21.56068 -21.71911,21.56068 -11.94572,0 -21.7191,-9.70209 -21.7191,-21.56068 0,-11.85859 9.77338,-21.56068 21.7191,-21.56068 3.25809,0 6.31829,0.68581 9.08254,1.96006 l 26.85271,-35.281113 c -1.67765,-3.03788 -2.56637,-6.46778 -2.56637,-10.19232 0,-11.85859 9.6753,-21.56068 21.7191,-21.56068 11.94572,0 21.71911,9.70209 21.71911,21.56068 0,0.98046 -0.0989,1.86184 -0.19788,2.8423 l 20.53443,15.77871 c 3.65297,-2.74408 8.09573,-4.31213 12.93252,-4.31213 2.4683,0 4.83765,0.39201 7.00913,1.17603 v 0 z M 298.8261,38.122552 c -5.5285,0 -9.97126,4.410352 -9.97126,9.898525 0,5.48817 4.44276,9.89853 9.97126,9.89853 5.5285,0 9.9704,-4.41036 9.9704,-9.89853 0,-5.488173 -4.4419,-9.898525 -9.9704,-9.898525 z m -55.08798,68.210158 c -5.5285,0 -9.97126,4.41035 -9.97126,9.89852 0,5.48818 4.44276,9.89853 9.97126,9.89853 5.62744,0 10.0702,-4.41035 10.0702,-9.89853 0,-5.48817 -4.5417,-9.89852 -10.0702,-9.89852 z M 188.74908,70.463147 c -5.5285,0 -10.07019,4.41035 -10.07019,9.89852 0,5.48818 4.54169,9.99589 10.07019,9.99589 5.5285,0 9.9704,-4.50771 9.9704,-9.99589 0,-5.48817 -4.4419,-9.89852 -9.9704,-9.89852 z M 133.66111,135.5372 c -5.5285,0 -9.9704,4.41035 -9.9704,9.89853 0,5.48817 4.4419,9.89852 9.9704,9.89852 5.52849,0 10.07019,-4.41035 10.07019,-9.89852 0,-5.48818 -4.5417,-9.89853 -10.07019,-9.89853 z M 282.23974,99.080047 h 33.171 c 3.25808,0 5.92339,2.547653 5.92339,5.781973 v 138.5768 c 0,3.23431 -2.66531,5.88018 -5.92339,5.88018 h -33.171 c -3.25808,0 -5.82445,-2.64587 -5.82445,-5.88018 v -138.5768 c 0,-3.23432 2.56723,-5.781973 5.82445,-5.781973 z m 27.34654,11.564793 H 288.0642 v 127.01201 h 21.52208 z m -82.43366,43.3178 h 33.26994 c 3.15914,0 5.82445,2.64587 5.82445,5.78197 v 83.69506 c 0,3.23432 -2.66531,5.88019 -5.82445,5.88019 h -33.26994 c -3.15914,0 -5.82445,-2.64587 -5.82445,-5.88019 v -83.69506 c 0,-3.1361 2.66531,-5.78197 5.82445,-5.78197 z m 27.34655,11.66215 h -21.42315 v 72.03206 h 21.42315 z m -82.33472,-39.29945 h 33.17099 c 3.25808,0 5.82446,2.64587 5.82446,5.88018 v 111.23415 c 0,3.23432 -2.56638,5.88019 -5.82446,5.88019 h -33.17099 c -3.25809,0 -5.9234,-2.64587 -5.9234,-5.88019 V 132.20552 c 0,-3.23431 2.66531,-5.88018 5.9234,-5.88018 z m 27.34654,11.66215 H 177.9889 v 99.66936 h 21.52209 z m -55.08712,49.00155 h -21.52209 v 50.66781 h 21.52209 z"
     id="path1"
     style="stroke-width:0.857189" />
  <text
     x="0"
     y="527"
     fill="#000000"
     font-size="5px"
     font-weight="bold"
     font-family="'Helvetica Neue', Helvetica, Arial-Unicode, Arial, Sans-serif"
     id="text1">Created by SUCI UTOMO</text>
  <text
     x="0"
     y="532"
     fill="#000000"
     font-size="5px"
     font-weight="bold"
     font-family="'Helvetica Neue', Helvetica, Arial-Unicode, Arial, Sans-serif"
     id="text2">from the Noun Project</text>
</svg>
