<?xml version="1.0" encoding="UTF-8" standalone="no"?>
<svg
   viewBox="0 0 21 21"
   fill="none"
   x="0px"
   y="0px"
   version="1.1"
   id="svg4"
   sodipodi:docname="noun-info-5776621.svg"
   width="21"
   height="21"
   inkscape:version="1.3 (0e150ed6c4, 2023-07-21)"
   xmlns:inkscape="http://www.inkscape.org/namespaces/inkscape"
   xmlns:sodipodi="http://sodipodi.sourceforge.net/DTD/sodipodi-0.dtd"
   xmlns="http://www.w3.org/2000/svg"
   xmlns:svg="http://www.w3.org/2000/svg">
  <defs
     id="defs4" />
  <sodipodi:namedview
     id="namedview4"
     pagecolor="#ffffff"
     bordercolor="#000000"
     borderopacity="0.25"
     inkscape:showpageshadow="2"
     inkscape:pageopacity="0.0"
     inkscape:pagecheckerboard="0"
     inkscape:deskcolor="#d1d1d1"
     inkscape:zoom="27.366667"
     inkscape:cx="12.003654"
     inkscape:cy="12.076736"
     inkscape:window-width="1920"
     inkscape:window-height="1017"
     inkscape:window-x="-8"
     inkscape:window-y="-8"
     inkscape:window-maximized="1"
     inkscape:current-layer="svg4" />
  <path
     fill-rule="evenodd"
     clip-rule="evenodd"
     d="m 10.392205,8.3556638 c 0.5523,0 1,0.4477 1,1 v 5.6000002 c 0,0.5523 -0.4477,1 -1,1 -0.5523004,0 -1.0000004,-0.4477 -1.0000004,-1 V 9.3556638 c 0,-0.5523 0.4477,-1 1.0000004,-1 z"
     fill="#000000"
     id="path1" />
  <path
     fill-rule="evenodd"
     clip-rule="evenodd"
     d="m 10.392205,2.3556638 c -4.4182804,0 -8.0000004,3.58172 -8.0000004,8.0000002 0,4.4183 3.58172,8 8.0000004,8 4.4183,0 8,-3.5817 8,-8 0,-4.4182802 -3.5817,-8.0000002 -8,-8.0000002 z M 0.39220463,10.355664 c 0,-5.5228502 4.47714997,-10.00000018 10.00000037,-10.00000018 5.5228,0 10,4.47714998 10,10.00000018 0,5.5228 -4.4772,10 -10,10 -5.5228504,0 -10.00000037,-4.4772 -10.00000037,-10 z"
     fill="#000000"
     id="path2" />
  <path
     d="m 11.392205,5.7556638 c 0,0.55228 -0.4477,1 -1,1 -0.5523004,0 -1.0000004,-0.44772 -1.0000004,-1 0,-0.55228 0.4477,-1 1.0000004,-1 0.5523,0 1,0.44772 1,1 z"
     fill="#000000"
     id="path3" />
  <text
     x="0"
     y="39"
     fill="#000000"
     font-size="5px"
     font-weight="bold"
     font-family="'Helvetica Neue', Helvetica, Arial-Unicode, Arial, Sans-serif"
     id="text3">Created by Marquet</text>
  <text
     x="0"
     y="44"
     fill="#000000"
     font-size="5px"
     font-weight="bold"
     font-family="'Helvetica Neue', Helvetica, Arial-Unicode, Arial, Sans-serif"
     id="text4">from the Noun Project</text>
</svg>
