<?xml version="1.0" encoding="UTF-8" standalone="no"?>
<svg
   version="1.1"
   x="0px"
   y="0px"
   viewBox="0 0 81 86"
   id="svg2"
   sodipodi:docname="noun-find-result-1610522.svg"
   width="81"
   height="86"
   inkscape:version="1.3 (0e150ed6c4, 2023-07-21)"
   xmlns:inkscape="http://www.inkscape.org/namespaces/inkscape"
   xmlns:sodipodi="http://sodipodi.sourceforge.net/DTD/sodipodi-0.dtd"
   xmlns="http://www.w3.org/2000/svg"
   xmlns:svg="http://www.w3.org/2000/svg">
  <defs
     id="defs2" />
  <sodipodi:namedview
     id="namedview2"
     pagecolor="#ffffff"
     bordercolor="#000000"
     borderopacity="0.25"
     inkscape:showpageshadow="2"
     inkscape:pageopacity="0.0"
     inkscape:pagecheckerboard="0"
     inkscape:deskcolor="#d1d1d1"
     inkscape:zoom="6.568"
     inkscape:cx="50.015225"
     inkscape:cy="62.5"
     inkscape:window-width="1920"
     inkscape:window-height="1017"
     inkscape:window-x="-8"
     inkscape:window-y="-8"
     inkscape:window-maximized="1"
     inkscape:current-layer="svg2" />
  <g
     transform="translate(-9.7442144,-959.36583)"
     id="g1">
    <path
       style="color:#000000;text-indent:0;text-transform:none;direction:ltr;baseline-shift:baseline;enable-background:accumulate"
       d="M 12.812597,960.3644 C 11.829376,960.4571 10.99574,961.37686 11,962.36435 v 79.99795 c 1.29e-4,1.0471 0.952898,1.9998 2.000107,1.9999 h 58.003102 c 1.04721,-10e-5 1.999978,-0.9528 2.000107,-1.9999 v -12.406 c 0.975848,-0.6001 1.908737,-1.2655 2.781399,-2 l 9.813026,9.8123 c 0.739286,0.7599 2.110504,0.7656 2.856061,0.012 0.745557,-0.7538 0.724715,-2.1247 -0.04341,-2.8555 l -9.781774,-9.781 c 3.359436,-3.9981 5.375288,-9.1625 5.375288,-14.7808 0,-8.2801 -4.416055,-15.54424 -11.000589,-19.59325 v -10.40598 c 0.0041,-0.53244 -0.215141,-1.06308 -0.593781,-1.43746 L 54.408572,960.92688 C 54.036403,960.5669 53.52003,960.36037 53.002247,960.3644 H 34.00123 c -0.06246,-0.003 -0.125052,-0.003 -0.187509,0 -1.048316,0.0476 -1.958459,1.04567 -1.909323,2.09383 0.04914,1.04816 1.048662,1.95675 2.096832,1.90606 h 16.000856 v 16.99955 c 1.03e-4,1.04714 0.952882,1.99985 2.000107,1.99995 h 17.000909 v 5.43736 c -2.490446,-0.92599 -5.191501,-1.43746 -8.000428,-1.43746 -7.853932,0 -14.788336,3.97424 -18.938512,9.99973 -6.077892,0 -12.187035,0 -18.250976,0 -1.044284,0.0533 -1.94703,1.04889 -1.89807,2.0933 0.04896,1.04438 1.040891,1.95118 2.085579,1.90658 h 15.844598 c -0.932588,2.1826 -1.536442,4.5347 -1.750094,6.9999 -4.754316,0 -9.541884,0 -14.282013,0 -1.052144,0.042 -1.969385,1.0425 -1.920079,2.0943 0.0493,1.0517 1.056122,1.962 2.107588,1.9055 h 14.094504 c 0.213652,2.4651 0.817506,4.8172 1.750094,6.9999 -5.337969,0 -10.70821,0 -16.032107,0 -1.047256,0.049 -1.955445,1.0465 -1.906355,2.0937 0.04909,1.0472 1.046609,1.9553 2.093864,1.9062 h 18.063467 c 1.975243,2.8677 4.586852,5.2725 7.625407,6.9998 H 24.000695 c -0.06246,0 -0.125052,0 -0.187509,0 -1.047256,0.049 -1.955445,1.0465 -1.906355,2.0937 0.04909,1.0472 1.046609,1.9553 2.093864,1.9062 h 36.001926 c 0.720615,0.011 1.432334,-0.4008 1.781346,-1.0313 2.527933,-0.085 4.959897,-0.5662 7.219135,-1.4062 v 8.4373 H 15.000214 v -75.99801 h 11.000588 c 1.05673,0.015 2.028741,-0.94319 2.028741,-1.99994 0,-1.05676 -0.972011,-2.01497 -2.028741,-1.99995 -4.389503,0 -8.812972,0 -13.188205,0 z M 54.0023,966.17674 67.190506,979.3639 H 54.0023 Z m 7.000374,25.18684 c 10.517662,0 19.001017,8.48267 19.001017,18.99952 0,10.5168 -8.483355,18.9995 -19.001017,18.9995 -10.517662,0 -19.001016,-8.4827 -19.001016,-18.9995 0,-10.51685 8.483354,-18.99952 19.001016,-18.99952 z m 8.812972,9.96842 c -0.518546,0.052 -1.01257,0.3165 -1.343822,0.7188 l -10.719323,12.4997 -4.46899,-3.7499 c -0.810753,-0.6645 -2.151598,-0.5351 -2.820307,0.2722 -0.66871,0.8072 -0.546207,2.1486 0.257671,2.8214 l 6.000321,4.9999 c 0.802621,0.6691 2.140637,0.5501 2.81265,-0.25 l 12.000642,-13.9997 c 0.530803,-0.6007 0.64574,-1.5341 0.276529,-2.2456 -0.369212,-0.7115 -1.198574,-1.1549 -1.995371,-1.0668 z"
       fill="#000000"
       fill-opacity="1"
       stroke="none"
       marker="none"
       visibility="visible"
       display="inline"
       overflow="visible"
       id="path1" />
  </g>
  <text
     x="0"
     y="115"
     fill="#000000"
     font-size="5px"
     font-weight="bold"
     font-family="'Helvetica Neue', Helvetica, Arial-Unicode, Arial, Sans-serif"
     id="text1">Created by joeartcon</text>
  <text
     x="0"
     y="120"
     fill="#000000"
     font-size="5px"
     font-weight="bold"
     font-family="'Helvetica Neue', Helvetica, Arial-Unicode, Arial, Sans-serif"
     id="text2">from the Noun Project</text>
</svg>
