<?xml version="1.0" encoding="UTF-8" standalone="no"?>
<svg
   version="1.1"
   x="0px"
   y="0px"
   viewBox="0 0 85 101"
   enable-background="new 0 0 100 100"
   xml:space="preserve"
   id="svg2"
   sodipodi:docname="noun-list-edit-3109546.svg"
   width="85"
   height="101"
   inkscape:version="1.3 (0e150ed6c4, 2023-07-21)"
   xmlns:inkscape="http://www.inkscape.org/namespaces/inkscape"
   xmlns:sodipodi="http://sodipodi.sourceforge.net/DTD/sodipodi-0.dtd"
   xmlns="http://www.w3.org/2000/svg"
   xmlns:svg="http://www.w3.org/2000/svg"><defs
     id="defs2" /><sodipodi:namedview
     id="namedview2"
     pagecolor="#ffffff"
     bordercolor="#000000"
     borderopacity="0.25"
     inkscape:showpageshadow="2"
     inkscape:pageopacity="0.0"
     inkscape:pagecheckerboard="0"
     inkscape:deskcolor="#d1d1d1"
     inkscape:zoom="6.568"
     inkscape:cx="50.015225"
     inkscape:cy="62.5"
     inkscape:window-width="1920"
     inkscape:window-height="1017"
     inkscape:window-x="-8"
     inkscape:window-y="-8"
     inkscape:window-maximized="1"
     inkscape:current-layer="svg2" /><path
     d="m 51.260079,22.013507 c -0.253,-0.112 -0.528,-0.18 -0.823,-0.18 h -34.708 c -1.128,0 -2.042,0.915 -2.042,2.042 0,1.127 0.914,2.042 2.042,2.042 h 31.627 l -8.344,8.347 c -0.253,-0.113 -0.53,-0.181 -0.826,-0.181 h -22.457 c -1.128,0 -2.042,0.915 -2.042,2.042 0,1.127 0.914,2.042 2.042,2.042 h 20.865 l -2.429,9.713 c -0.175,0.696 0.03,1.432 0.537,1.939 0.387,0.388 0.909,0.598 1.443,0.598 0.166,0 0.331,-0.02 0.495,-0.061 l 11.145,-2.787 c 0.359,-0.09 0.688,-0.275 0.949,-0.538 l 27.854,-27.858 c 0.002,-0.001 0.004,-0.001 0.004,-0.002 l 4.18,-4.176 c 1.503,-1.503 2.33,-3.5 2.33,-5.6240003 0,-2.123 -0.827,-4.12 -2.328,-5.62 -1.502,-1.503 -3.497,-2.332 -5.623,-2.332 0,0 0,0 -0.002,0 -2.123,0 -4.121,0.828 -5.622,2.33 l -4.18,4.175 c 0,10e-4 -0.002,0.002 -0.002,0.003 z m -5.014,21.732 -7.293,1.824 1.825,-7.295 26.013,-26.018 5.472,5.471 z m 28.902,-38.2420003 h 0.002 c 1.033,0 2.002,0.403 2.733,1.135 0.732,0.731 1.135,1.702 1.135,2.733 0,1.0330003 -0.402,2.0050003 -1.135,2.7360003 l -2.735,2.732 -5.471,-5.4700003 2.735,-2.732 c 0.732,-0.731 1.704,-1.134 2.736,-1.134 z m 7.955,18.3730003 v 73.5 c 0,1.129 -0.913,2.042 -2.041,2.042 H 3.4790792 c -1.128,0 -2.042,-0.913 -2.042,-2.042 V 3.4595067 c 0,-1.127 0.914,-2.042 2.042,-2.042 H 60.645079 c 1.129,0 2.042,0.914 2.042,2.042 0,1.128 -0.913,2.042 -2.042,2.042 H 5.5200792 V 95.334507 H 79.020079 v -71.458 c 0,-1.127 0.913,-2.042 2.042,-2.042 1.128,0 2.041,0.914 2.041,2.042 z m -55.124,22.458 c 1.128,0 2.042,0.915 2.042,2.042 0,1.127 -0.913,2.042 -2.042,2.042 h -12.25 c -1.128,0 -2.042,-0.914 -2.042,-2.042 0,-1.128 0.914,-2.042 2.042,-2.042 z"
     id="path1" /><text
     x="0"
     y="115"
     fill="#000000"
     font-size="5px"
     font-weight="bold"
     font-family="'Helvetica Neue', Helvetica, Arial-Unicode, Arial, Sans-serif"
     id="text1">Created by Graphik Designz</text><text
     x="0"
     y="120"
     fill="#000000"
     font-size="5px"
     font-weight="bold"
     font-family="'Helvetica Neue', Helvetica, Arial-Unicode, Arial, Sans-serif"
     id="text2">from the Noun Project</text></svg>
