<?xml version="1.0" encoding="UTF-8" standalone="no"?>
<svg
   version="1.1"
   x="0px"
   y="0px"
   viewBox="0 0 627 1028"
   xml:space="preserve"
   id="svg6"
   sodipodi:docname="noun-mike-1915558.svg"
   width="627"
   height="1028"
   inkscape:version="1.3 (0e150ed6c4, 2023-07-21)"
   xmlns:inkscape="http://www.inkscape.org/namespaces/inkscape"
   xmlns:sodipodi="http://sodipodi.sourceforge.net/DTD/sodipodi-0.dtd"
   xmlns="http://www.w3.org/2000/svg"
   xmlns:svg="http://www.w3.org/2000/svg"><defs
     id="defs6" /><sodipodi:namedview
     id="namedview6"
     pagecolor="#ffffff"
     bordercolor="#000000"
     borderopacity="0.25"
     inkscape:showpageshadow="2"
     inkscape:pageopacity="0.0"
     inkscape:pagecheckerboard="0"
     inkscape:deskcolor="#d1d1d1"
     inkscape:zoom="0.64140625"
     inkscape:cx="512.15591"
     inkscape:cy="640"
     inkscape:window-width="1920"
     inkscape:window-height="1017"
     inkscape:window-x="-8"
     inkscape:window-y="-8"
     inkscape:window-maximized="1"
     inkscape:current-layer="svg6" /><g
     id="g5"
     transform="translate(-201.12058,4.6772229)"><g
       id="g4"><path
         d="m 642.9,569.2 c 0,7.4 -0.5,14.8 -1.5,22.2 0.4,-2.7 0.7,-5.3 1.1,-8 -2,13.8 -5.6,27.3 -11,40.2 1,-2.4 2,-4.8 3,-7.2 -4,9.3 -8.7,18.3 -14.3,26.7 -1.5,2.2 -3,4.3 -4.5,6.4 -1.4,1.8 -4.8,5.5 1.5,-1.9 -0.8,1 -1.6,2 -2.5,3.1 -3.2,3.9 -6.6,7.6 -10.1,11.1 -3.5,3.5 -7.3,6.9 -11.1,10.1 -0.7,0.6 -2.3,2.4 -3.1,2.5 1.2,0 6.7,-5 1.9,-1.5 -1.9,1.4 -3.9,2.8 -5.9,4.2 -8.6,5.8 -17.7,10.6 -27.2,14.7 2.4,-1 4.8,-2 7.2,-3 -12.9,5.4 -26.3,9 -40.2,11 2.7,-0.4 5.3,-0.7 8,-1.1 -14.7,2 -29.6,2 -44.4,0 2.7,0.4 5.3,0.7 8,1.1 -13.8,-2 -27.3,-5.6 -40.2,-11 2.4,1 4.8,2 7.2,3 -9.3,-4 -18.3,-8.7 -26.7,-14.3 -2.2,-1.5 -4.3,-3 -6.4,-4.5 -1.8,-1.4 -5.5,-4.8 1.9,1.5 -1,-0.8 -2,-1.6 -3.1,-2.5 -3.9,-3.2 -7.6,-6.6 -11.1,-10.1 -3.5,-3.5 -6.9,-7.3 -10.1,-11.1 -0.6,-0.7 -2.4,-2.3 -2.5,-3.1 0,1.2 5,6.7 1.5,1.9 -1.4,-1.9 -2.8,-3.9 -4.2,-5.9 -5.8,-8.6 -10.6,-17.7 -14.7,-27.2 1,2.4 2,4.8 3,7.2 -5.4,-12.9 -9,-26.3 -11,-40.2 0.4,2.7 0.7,5.3 1.1,8 -2.3,-17.2 -1.5,-34.8 -1.5,-52.2 0,-29.6 0,-59.2 0,-88.8 0,-36.8 0,-73.5 0,-110.3 0,-31.2 0,-62.4 0,-93.6 0,-13.8 -0.2,-27.6 0,-41.4 0.1,-6.5 0.6,-12.9 1.5,-19.4 -0.4,2.7 -0.7,5.3 -1.1,8 2,-13.8 5.6,-27.3 11,-40.2 -1,2.4 -2,4.8 -3,7.2 4,-9.3 8.7,-18.3 14.3,-26.7 1.5,-2.2 3,-4.3 4.5,-6.4 1.4,-1.8 4.8,-5.5 -1.5,1.9 0.8,-1 1.6,-2 2.5,-3.1 3.2,-3.9 6.6,-7.6 10.1,-11.1 3.5,-3.5 7.3,-6.9 11.1,-10.1 0.7,-0.6 2.3,-2.4 3.1,-2.5 -1.2,0 -6.7,5 -1.9,1.5 1.9,-1.4 3.9,-2.8 5.9,-4.2 8.6,-5.8 17.7,-10.6 27.2,-14.7 -2.4,1 -4.8,2 -7.2,3 12.9,-5.4 26.3,-9 40.2,-11 -2.7,0.4 -5.3,0.7 -8,1.1 14.7,-2 29.6,-2 44.4,0 -2.7,-0.4 -5.3,-0.7 -8,-1.1 13.8,2 27.3,5.6 40.2,11 -2.4,-1 -4.8,-2 -7.2,-3 9.3,4 18.3,8.7 26.7,14.3 2.2,1.5 4.3,3 6.4,4.5 1.8,1.4 5.5,4.8 -1.9,-1.5 1,0.8 2,1.6 3.1,2.5 3.9,3.2 7.6,6.6 11.1,10.1 3.5,3.5 6.9,7.3 10.1,11.1 0.6,0.7 2.4,2.3 2.5,3.1 0,-1.2 -5,-6.7 -1.5,-1.9 1.4,1.9 2.8,3.9 4.2,5.9 5.8,8.6 10.6,17.7 14.7,27.2 -1,-2.4 -2,-4.8 -3,-7.2 5.4,12.9 9,26.3 11,40.2 -0.4,-2.7 -0.7,-5.3 -1.1,-8 2.2,16.6 1.5,33.7 1.5,50.4 0,28.3 0,56.6 0,84.9 0,35.6 0,71.1 0,106.7 0,31.5 0,62.9 0,94.4 0,15.4 -0.3,30.9 0,46.4 0.1,0.2 0,0.5 0,0.7 0,15.7 13.8,30.7 30,30 16.3,-0.7 30,-13.2 30,-30 0,-31.6 0,-63.2 0,-94.8 0,-58.4 0,-116.7 0,-175.1 0,-32.2 1,-64.7 -0.1,-96.9 C 701.2,155 682.1,109.5 649.3,75.3 616.4,41 571.6,21.1 524.6,17.5 c -48,-3.7 -94.9,12.6 -132.4,42 -34.5,27.1 -59.6,68.2 -67.5,111.5 -3.2,17.7 -3.7,35.1 -3.7,53 0,19.9 0,39.9 0,59.8 0,58 0,116.1 0,174.1 0,36.7 0,73.4 0,110.1 0,37.4 10.6,75.3 31.7,106.4 26.1,38.6 65.2,67.5 110.5,79.4 46.7,12.2 96.9,6.1 139.4,-16.6 41.3,-22 72.1,-59.3 88.7,-102.7 7.9,-20.7 11.5,-43.3 11.6,-65.4 0.1,-15.7 -13.8,-30.7 -30,-30 -16.3,0.8 -29.9,13.3 -30,30.1 z"
         id="path1" /><path
         d="m 220.4,566.3 c 0.2,59 18.1,118.4 52.4,166.6 35.3,49.6 83.7,86.8 140.8,107.8 56.2,20.7 120,22.5 177.6,6.2 55.7,-15.7 107.3,-48.6 144.1,-93.4 39.2,-47.6 62.5,-104.8 67.4,-166.3 0.6,-7 0.8,-14 0.8,-21 0,-15.7 -13.8,-30.7 -30,-30 -16.3,0.7 -30,13.2 -30,30 0,11.6 -0.8,23.2 -2.3,34.7 0.4,-2.7 0.7,-5.3 1.1,-8 -3.1,23.2 -9.3,45.8 -18.4,67.4 1,-2.4 2,-4.8 3,-7.2 -5.1,11.9 -11,23.5 -17.8,34.6 -3.3,5.4 -6.8,10.7 -10.5,15.8 -0.9,1.2 -1.8,2.5 -2.7,3.7 -0.5,0.7 -1.1,1.4 -1.6,2.1 -1.7,2.4 2.8,-4 2.7,-3.5 -0.6,2.6 -4.9,6.1 -6.6,8.1 -8.2,9.6 -17.1,18.7 -26.5,27.1 -2.3,2 -4.6,4 -7,5.9 -1.3,1.1 -2.7,2.2 -4.1,3.3 -0.9,0.7 -3,2.3 1,-0.7 4.3,-3.3 0.9,-0.7 -0.1,0 -5.1,3.8 -10.3,7.4 -15.6,10.9 -12.4,8 -25.5,14.8 -39.1,20.6 2.4,-1 4.8,-2 7.2,-3 -21.6,9.1 -44.2,15.3 -67.4,18.4 2.7,-0.4 5.3,-0.7 8,-1.1 -23,3 -46.4,3 -69.4,0 2.7,0.4 5.3,0.7 8,1.1 -23.2,-3.1 -45.8,-9.3 -67.4,-18.4 2.4,1 4.8,2 7.2,3 -11.9,-5.1 -23.5,-11 -34.6,-17.8 -5.4,-3.3 -10.7,-6.8 -15.8,-10.5 -1.2,-0.9 -2.5,-1.8 -3.7,-2.7 -0.7,-0.5 -1.4,-1.1 -2.1,-1.6 -2.4,-1.7 4,2.8 3.5,2.7 -2.6,-0.6 -6.1,-4.9 -8.1,-6.6 -9.6,-8.2 -18.7,-17.1 -27.1,-26.5 -2,-2.3 -4,-4.6 -5.9,-7 -1.1,-1.3 -2.2,-2.7 -3.3,-4.1 -0.7,-0.9 -2.3,-3 0.7,1 3.3,4.3 0.7,0.9 0,-0.1 -3.8,-5.1 -7.4,-10.3 -10.9,-15.6 -8,-12.4 -14.8,-25.5 -20.6,-39.1 1,2.4 2,4.8 3,7.2 -9.1,-21.6 -15.3,-44.2 -18.4,-67.4 0.4,2.7 0.7,5.3 1.1,8 -1.5,-11.5 -2.3,-23.1 -2.3,-34.7 0,-15.7 -13.8,-30.7 -30,-30 -16.5,0.8 -30.3,13.3 -30.3,30.1 z"
         id="path2" /><path
         d="m 542,977 c 0,-43.6 0,-87.2 0,-130.8 0,-6.1 0,-12.2 0,-18.3 0,-15.7 -13.8,-30.7 -30,-30 -16.3,0.7 -30,13.2 -30,30 0,43.6 0,87.2 0,130.8 0,6.1 0,12.2 0,18.3 0,15.7 13.8,30.7 30,30 16.2,-0.7 30,-13.2 30,-30 z"
         id="path3" /><path
         d="m 344.7,1007 c 37.7,0 75.4,0 113.2,0 60.1,0 120.1,0 180.2,0 13.7,0 27.4,0 41.1,0 15.7,0 30.7,-13.8 30,-30 -0.7,-16.3 -13.2,-30 -30,-30 -37.7,0 -75.4,0 -113.2,0 -60.1,0 -120.1,0 -180.2,0 -13.7,0 -27.4,0 -41.1,0 -15.7,0 -30.7,13.8 -30,30 0.7,16.3 13.2,30 30,30 z"
         id="path4" /></g></g><text
     x="0"
     y="1039"
     fill="#000000"
     font-size="5px"
     font-weight="bold"
     font-family="'Helvetica Neue', Helvetica, Arial-Unicode, Arial, Sans-serif"
     id="text5">Created by shashank singh</text><text
     x="0"
     y="1044"
     fill="#000000"
     font-size="5px"
     font-weight="bold"
     font-family="'Helvetica Neue', Helvetica, Arial-Unicode, Arial, Sans-serif"
     id="text6">from the Noun Project</text></svg>
