<?xml version="1.0" encoding="UTF-8" standalone="no"?>
<svg
   xml:space="preserve"
   version="1.1"
   style="image-rendering:optimizeQuality;shape-rendering:geometricPrecision;text-rendering:geometricPrecision"
   viewBox="0 0 272 277"
   x="0px"
   y="0px"
   fill-rule="evenodd"
   clip-rule="evenodd"
   id="svg3"
   sodipodi:docname="noun-play-2279918.svg"
   width="272"
   height="277"
   inkscape:version="1.3 (0e150ed6c4, 2023-07-21)"
   xmlns:inkscape="http://www.inkscape.org/namespaces/inkscape"
   xmlns:sodipodi="http://sodipodi.sourceforge.net/DTD/sodipodi-0.dtd"
   xmlns="http://www.w3.org/2000/svg"
   xmlns:svg="http://www.w3.org/2000/svg"><sodipodi:namedview
     id="namedview3"
     pagecolor="#ffffff"
     bordercolor="#000000"
     borderopacity="0.25"
     inkscape:showpageshadow="2"
     inkscape:pageopacity="0.0"
     inkscape:pagecheckerboard="0"
     inkscape:deskcolor="#d1d1d1"
     inkscape:zoom="1.9783133"
     inkscape:cx="166.05055"
     inkscape:cy="207.5"
     inkscape:window-width="1920"
     inkscape:window-height="1017"
     inkscape:window-x="-8"
     inkscape:window-y="-8"
     inkscape:window-maximized="1"
     inkscape:current-layer="svg3" /><defs
     id="defs1"><style
       type="text/css"
       id="style1">&#10;   &#10;    .fil0 {fill:black}&#10;    .fil1 {fill:black;fill-rule:nonzero}&#10;   &#10;  </style></defs><g
     id="g2"
     transform="matrix(0.78532278,0,0,0.80663825,4.043849,4.5493301)"><path
       class="fil0"
       d="m 132,96 100,63 c 6,3 6,11 0,14 l -100,63 c -6,3 -13,-1 -13,-8 V 103 c 0,-6 7,-10 13,-7 z"
       id="path1" /><path
       class="fil1"
       d="m 166,0 c 92,0 166,74 166,166 0,92 -74,166 -166,166 C 74,332 0,258 0,166 0,74 74,0 166,0 Z m 0,25 C 88,25 25,88 25,166 25,244 88,306 166,306 244,306 306,244 306,166 306,88 244,25 166,25 Z"
       id="path2" /></g><text
     x="0"
     y="347"
     fill="#000000"
     font-size="5px"
     font-weight="bold"
     font-family="'Helvetica Neue', Helvetica, Arial-Unicode, Arial, Sans-serif"
     id="text2">Created by Humantech</text><text
     x="0"
     y="352"
     fill="#000000"
     font-size="5px"
     font-weight="bold"
     font-family="'Helvetica Neue', Helvetica, Arial-Unicode, Arial, Sans-serif"
     id="text3">from the Noun Project</text></svg>
