<?xml version="1.0" encoding="UTF-8" standalone="no"?>
<svg
   version="1.1"
   x="0px"
   y="0px"
   viewBox="0 0 74 73"
   xml:space="preserve"
   id="svg3"
   sodipodi:docname="noun-question-mark-745059.svg"
   width="74"
   height="73"
   inkscape:version="1.3 (0e150ed6c4, 2023-07-21)"
   xmlns:inkscape="http://www.inkscape.org/namespaces/inkscape"
   xmlns:sodipodi="http://sodipodi.sourceforge.net/DTD/sodipodi-0.dtd"
   xmlns="http://www.w3.org/2000/svg"
   xmlns:svg="http://www.w3.org/2000/svg"><defs
     id="defs3" /><sodipodi:namedview
     id="namedview3"
     pagecolor="#ffffff"
     bordercolor="#000000"
     borderopacity="0.25"
     inkscape:showpageshadow="2"
     inkscape:pageopacity="0.0"
     inkscape:pagecheckerboard="0"
     inkscape:deskcolor="#d1d1d1"
     inkscape:zoom="6.568"
     inkscape:cx="50.015225"
     inkscape:cy="62.5"
     inkscape:window-width="1920"
     inkscape:window-height="1017"
     inkscape:window-x="-8"
     inkscape:window-y="-8"
     inkscape:window-maximized="1"
     inkscape:current-layer="svg3" /><style
     type="text/css"
     id="style1">&#10;	.st0{fill:#050001;}&#10;	.st1{fill:none;stroke:#000000;stroke-width:5.6693;stroke-linecap:round;stroke-miterlimit:10;}&#10;	.st2{fill:none;stroke:#000000;stroke-width:5.6693;stroke-linecap:round;stroke-linejoin:round;stroke-miterlimit:10;}&#10;	&#10;		.st3{fill-rule:evenodd;clip-rule:evenodd;fill:none;stroke:#000000;stroke-width:5.6693;stroke-linecap:round;stroke-linejoin:round;stroke-miterlimit:10;}&#10;	.st4{fill:none;stroke:#000000;stroke-width:5.6693;stroke-linecap:square;stroke-miterlimit:10;}&#10;	.st5{fill:none;stroke:#000000;stroke-width:5.0823;stroke-miterlimit:10;}&#10;	.st6{fill:none;stroke:#000000;stroke-width:5.6693;stroke-linejoin:round;stroke-miterlimit:10;}&#10;	.st7{fill:none;stroke:#000000;stroke-width:8.5039;stroke-linecap:round;stroke-linejoin:round;stroke-miterlimit:10;}&#10;	.st8{fill-rule:evenodd;clip-rule:evenodd;}&#10;	&#10;		.st9{fill-rule:evenodd;clip-rule:evenodd;fill:none;stroke:#000000;stroke-width:5.6693;stroke-linejoin:round;stroke-miterlimit:10;}&#10;</style><g
     id="g2"
     transform="translate(-13.093788,-13.398295)"><g
       id="g1"><path
         d="M 50,20.7 C 66.2,20.7 79.3,33.8 79.3,50 79.3,66.2 66.2,79.3 50,79.3 33.8,79.3 20.7,66.2 20.7,50 20.7,33.8 33.8,20.7 50,20.7 M 50,15 C 30.7,15 15,30.7 15,50 15,69.3 30.7,85 50,85 69.3,85 85,69.3 85,50 85,30.7 69.3,15 50,15 Z"
         id="path1" /></g><circle
       cx="50.400002"
       cy="65.199997"
       r="3.8"
       id="circle1" /><path
       class="st2"
       d="m 41.8,42.8 c 0,-4.8 4,-8.7 8.8,-8.5 4.5,0.1 8.2,3.8 8.3,8.3 0.1,3.6 -2.1,6.8 -5.2,8.1 -2,0.9 -3.4,2.7 -3.4,4.9 v 0"
       id="path2" /></g><text
     x="0"
     y="115"
     fill="#000000"
     font-size="5px"
     font-weight="bold"
     font-family="'Helvetica Neue', Helvetica, Arial-Unicode, Arial, Sans-serif"
     id="text2">Created by Miroku Sama</text><text
     x="0"
     y="120"
     fill="#000000"
     font-size="5px"
     font-weight="bold"
     font-family="'Helvetica Neue', Helvetica, Arial-Unicode, Arial, Sans-serif"
     id="text3">from the Noun Project</text></svg>
