<?xml version="1.0" encoding="UTF-8" standalone="no"?>
<svg
   data-name="Layer 1"
   viewBox="0 0 33 33"
   x="0px"
   y="0px"
   version="1.1"
   id="svg3"
   sodipodi:docname="rotate-circle.svg"
   width="33"
   height="33"
   inkscape:version="1.3 (0e150ed6c4, 2023-07-21)"
   xmlns:inkscape="http://www.inkscape.org/namespaces/inkscape"
   xmlns:sodipodi="http://sodipodi.sourceforge.net/DTD/sodipodi-0.dtd"
   xmlns="http://www.w3.org/2000/svg"
   xmlns:svg="http://www.w3.org/2000/svg"
   xmlns:rdf="http://www.w3.org/1999/02/22-rdf-syntax-ns#"
   xmlns:cc="http://creativecommons.org/ns#"
   xmlns:dc="http://purl.org/dc/elements/1.1/">
  <defs
     id="defs3" />
  <sodipodi:namedview
     id="namedview3"
     pagecolor="#ffffff"
     bordercolor="#000000"
     borderopacity="0.25"
     inkscape:showpageshadow="2"
     inkscape:pageopacity="0.0"
     inkscape:pagecheckerboard="0"
     inkscape:deskcolor="#d1d1d1"
     inkscape:zoom="18.244444"
     inkscape:cx="18.115104"
     inkscape:cy="22.335567"
     inkscape:window-width="1920"
     inkscape:window-height="1017"
     inkscape:window-x="-8"
     inkscape:window-y="-5"
     inkscape:window-maximized="1"
     inkscape:current-layer="svg3" />
  <title
     id="title1">Icon</title>
  <path
     d="m 16.62972,0.57490865 a 16,16 0 1 0 16,16.00000035 16,16 0 0 0 -16,-16.00000035 z m 0,29.87000035 a 13.87,13.87 0 1 1 13.87,-13.87 13.88,13.88 0 0 1 -13.87,13.87 z"
     id="path1" />
  <path
     d="m 6.9913742,13.580475 a 1.07,1.07 0 0 1 1.09,-0.47 l 0.8999998,0.16 a 8.81,8.81 0 1 1 1.3,8.65 l 1.66,-1.33 a 6.69,6.69 0 1 0 -0.87,-6.92 l 0.77,0.14 a 1.07,1.07 0 0 1 0.44,1.92 l -2.25,1.56 a 1.08,1.08 0 0 1 -1.4799998,-0.27 l -1.56,-2.25 a 1.07,1.07 0 0 1 0,-1.19 z"
     id="path2" />
  <text
     x="0"
     y="51"
     fill="#000000"
     font-size="5px"
     font-weight="bold"
     font-family="'Helvetica Neue', Helvetica, Arial-Unicode, Arial, Sans-serif"
     id="text2">Created by Studio Paw</text>
  <text
     x="0"
     y="56"
     fill="#000000"
     font-size="5px"
     font-weight="bold"
     font-family="'Helvetica Neue', Helvetica, Arial-Unicode, Arial, Sans-serif"
     id="text3">from the Noun Project</text>
  <metadata
     id="metadata3">
    <rdf:RDF>
      <cc:Work
         rdf:about="">
        <dc:title>Icon</dc:title>
      </cc:Work>
    </rdf:RDF>
  </metadata>
</svg>
