<?xml version="1.0" encoding="UTF-8" standalone="no"?>
<svg
   viewBox="0 0 33 33"
   x="0px"
   y="0px"
   version="1.1"
   id="svg5"
   sodipodi:docname="noun-lecture-4298503.svg"
   width="33"
   height="33"
   inkscape:version="1.3 (0e150ed6c4, 2023-07-21)"
   xmlns:inkscape="http://www.inkscape.org/namespaces/inkscape"
   xmlns:sodipodi="http://sodipodi.sourceforge.net/DTD/sodipodi-0.dtd"
   xmlns="http://www.w3.org/2000/svg"
   xmlns:svg="http://www.w3.org/2000/svg"
   xmlns:rdf="http://www.w3.org/1999/02/22-rdf-syntax-ns#"
   xmlns:cc="http://creativecommons.org/ns#"
   xmlns:dc="http://purl.org/dc/elements/1.1/">
  <defs
     id="defs5" />
  <sodipodi:namedview
     id="namedview5"
     pagecolor="#ffffff"
     bordercolor="#000000"
     borderopacity="0.25"
     inkscape:showpageshadow="2"
     inkscape:pageopacity="0.0"
     inkscape:pagecheckerboard="0"
     inkscape:deskcolor="#d1d1d1"
     inkscape:zoom="18.244444"
     inkscape:cx="18.005481"
     inkscape:cy="18.115104"
     inkscape:window-width="1920"
     inkscape:window-height="1017"
     inkscape:window-x="-8"
     inkscape:window-y="-5"
     inkscape:window-maximized="1"
     inkscape:current-layer="svg5" />
  <title
     id="title1">Монтажная область 8</title>
  <path
     d="m 12,18 a 4,4 0 1 0 -4,-4 4.00427,4.00427 0 0 0 4,4 z m 0,-6 a 2,2 0 1 1 -2,2 2.00229,2.00229 0 0 1 2,-2 z"
     id="path1" />
  <path
     d="M 31.62972,0.46528624 H 1.6297198 A 0.99974,0.99974 0 0 0 0.62971985,1.4652862 V 21.465286 a 0.99974,0.99974 0 0 0 0.99999995,1 h 3 v 9 a 0.99974,0.99974 0 0 0 1,1 H 15.62972 a 0.99974,0.99974 0 0 0 1,-1 v -7 h 5 a 2.99408,2.99408 0 0 0 2.81793,-2 h 7.18207 a 0.99974,0.99974 0 0 0 1,-1 V 1.4652862 a 0.99974,0.99974 0 0 0 -1,-0.99999996 z M 22.32406,22.177196 a 0.95987,0.95987 0 0 1 -0.69434,0.28809 h -6 a 0.99974,0.99974 0 0 0 -1,1 v 7 H 6.6297198 v -9 a 1.001,1.001 0 0 1 1,-1 H 21.62972 a 1.001,1.001 0 0 1 1,1 0.97646,0.97646 0 0 1 -0.30566,0.71191 z m 8.30566,-1.71191 h -6.18427 a 2.99742,2.99742 0 0 0 -0.71618,-1.13751 l 1.84869,-5.54608 a 0.99964,0.99964 0 1 0 -1.89648,-0.63282 l -1.78125,5.34375 c -0.09051,-0.0082 -0.17786,-0.02734 -0.27051,-0.02734 H 7.6297198 a 2.99507,2.99507 0 0 0 -2.81573,2 h -2.18427 V 2.4652862 H 30.62972 Z"
     id="path2" />
  <path
     d="m 21,8 h 8 a 1,1 0 0 0 0,-2 h -8 a 1,1 0 0 0 0,2 z"
     id="path3" />
  <path
     d="m 21,12 h 8 a 1,1 0 0 0 0,-2 h -8 a 1,1 0 0 0 0,2 z"
     id="path4" />
  <text
     x="0"
     y="51"
     fill="#000000"
     font-size="5px"
     font-weight="bold"
     font-family="'Helvetica Neue', Helvetica, Arial-Unicode, Arial, Sans-serif"
     id="text4">Created by Solomakhina Maria</text>
  <text
     x="0"
     y="56"
     fill="#000000"
     font-size="5px"
     font-weight="bold"
     font-family="'Helvetica Neue', Helvetica, Arial-Unicode, Arial, Sans-serif"
     id="text5">from the Noun Project</text>
  <metadata
     id="metadata5">
    <rdf:RDF>
      <cc:Work
         rdf:about="">
        <dc:title>Монтажная область 8</dc:title>
      </cc:Work>
    </rdf:RDF>
  </metadata>
</svg>
