<?xml version="1.0" encoding="UTF-8" standalone="no"?>
<svg
   viewBox="0 0 97 102"
   x="0px"
   y="0px"
   version="1.1"
   id="svg2"
   sodipodi:docname="noun-graduation-5083570.svg"
   width="97"
   height="102"
   inkscape:version="1.3 (0e150ed6c4, 2023-07-21)"
   xmlns:inkscape="http://www.inkscape.org/namespaces/inkscape"
   xmlns:sodipodi="http://sodipodi.sourceforge.net/DTD/sodipodi-0.dtd"
   xmlns="http://www.w3.org/2000/svg"
   xmlns:svg="http://www.w3.org/2000/svg"
   xmlns:rdf="http://www.w3.org/1999/02/22-rdf-syntax-ns#"
   xmlns:cc="http://creativecommons.org/ns#"
   xmlns:dc="http://purl.org/dc/elements/1.1/">
  <defs
     id="defs2" />
  <sodipodi:namedview
     id="namedview2"
     pagecolor="#ffffff"
     bordercolor="#000000"
     borderopacity="0.25"
     inkscape:showpageshadow="2"
     inkscape:pageopacity="0.0"
     inkscape:pagecheckerboard="0"
     inkscape:deskcolor="#d1d1d1"
     inkscape:zoom="5.13125"
     inkscape:cx="64.019488"
     inkscape:cy="80"
     inkscape:window-width="1920"
     inkscape:window-height="1017"
     inkscape:window-x="-8"
     inkscape:window-y="-8"
     inkscape:window-maximized="1"
     inkscape:current-layer="svg2" />
  <title
     id="title1">44</title>
  <g
     data-name="1"
     id="g1"
     transform="translate(-15.590743,-13.057247)">
    <path
       d="m 36.88168,28.35938 -7.41192,-2.288 34.52942,-11.24161 34.099,11.24158 -13.5893,4.20007 -20.5097,5.43683 -20.5694,-5.43683 -1.54443,-0.37042 3.52065,-1.1712 0.37036,-0.37042 -5.065,0.80078 v 1.11126 l -0.80218,12.41834 c -3.02747,1.54443 -6.5481,0 -6.5481,0 -0.74109,-4.63349 4.63324,-13.96 4.63324,-13.96 l 0.43183,-0.74085 1.91479,-0.37066 v -0.43567 h -2.717 z M 77.157,77.89862 c -3.88965,3.522 -8.15387,5.87 -13.15777,5.87 -5.065,0 -9.32648,-2.348 -13.21888,-5.87 C 28.72757,90.317 17.4863,82.965 17.4863,113.17023 h 93.0274 C 110.5137,84.139 99.27219,90.317 77.157,77.89862 Z M 45.406,58.935 c 2.65728,10.87085 11.18157,19.39679 18.5932,19.39679 6.9815,0 15.50579,-8.52594 18.22418,-19.39679 0.74109,0 1.17151,-1.11151 1.17151,-1.91486 v -0.37036 a 14.13443,14.13443 0 0 0 1.114,-3.08911 c 0.43292,-1.174 2.34522,-5.43683 0.80359,-6.60809 -0.80359,-0.37037 -1.17676,-0.37037 -1.54718,0.37042 0,0 1.54718,-9.63715 0.74359,-14.70355 V 32.249 L 63.99919,37.68583 43.42978,32.249 v 1.9148 a 22.03572,22.03572 0 0 0 0,6.98157 v 1.1712 c 0.37036,1.54718 0.74109,3.45923 1.17395,5.00641 a 1.17613,1.17613 0 0 0 -1.9148,0 c -1.54437,1.54162 0,4.63074 0.37043,6.23767 a 5.70706,5.70706 0 0 0 1.11151,2.65588 v 0.80359 c 0,0.80337 0.43286,1.91488 1.23513,1.91488 z"
       id="path1" />
  </g>
  <text
     x="0"
     y="143"
     fill="#000000"
     font-size="5px"
     font-weight="bold"
     font-family="'Helvetica Neue', Helvetica, Arial-Unicode, Arial, Sans-serif"
     id="text1">Created by Revana Dera</text>
  <text
     x="0"
     y="148"
     fill="#000000"
     font-size="5px"
     font-weight="bold"
     font-family="'Helvetica Neue', Helvetica, Arial-Unicode, Arial, Sans-serif"
     id="text2">from the Noun Project</text>
  <metadata
     id="metadata2">
    <rdf:RDF>
      <cc:Work
         rdf:about="">
        <dc:title>44</dc:title>
      </cc:Work>
    </rdf:RDF>
  </metadata>
</svg>
