<svg xmlns="http://www.w3.org/2000/svg" viewBox="0 0 63.37 103.02"><defs><style>.cls-1{fill:#f6d8b4;}.cls-2{fill:#f4aa77;}.cls-3{fill:#fdecde;}</style></defs><title>App Admin v2</title><g id="Layer_2" data-name="Layer 2"><g id="Layer_8" data-name="Layer 8"><path class="cls-1" d="M55.25,64.63a45.18,45.18,0,0,0-14.32-1.55h0l-.51-6A22.23,22.23,0,0,0,52.27,42.65c.14-.54.28-1.08.4-1.62.49.69,1.18,1.46,1.55.92.6-.87,1.9-6.35,1.11-8-.33-.69-.93-.64-1.53-.35.06-1,.07-2,0-2.92l.82,1.08S57.27,10.21,43.73,7.17l4.14-4L38.12,4.32,33.1,0l1.22,3.88S22.75,3.88,16.54,8,8.78,21.58,8.78,21.58,7.71,32.91,9.93,32.27c0,.43-.07.87-.09,1.29-.57-.25-1.14-.27-1.46.39-.78,1.65.51,7.13,1.12,8,.31.45.85,0,1.3-.59a9.44,9.44,0,0,0,.55,1.29C15.22,50.09,19,54.38,22.54,56.76l-.8,6.29h0S11.57,62,7.08,66,0,102.7,0,102.7l63.37.32S63,66.91,55.25,64.63ZM45.81,35.4c-1.55,1.38-7.85,1-9.66-.33-1.19-.87-2-3.45-2.15-5.37H29.78v-.61H34a2.24,2.24,0,0,1,.39-1.55c1-.91,11.74-.73,12.43,0S47.36,34,45.81,35.4ZM18,35.4c-1.56-1.38-1.69-7.13-1-7.86s11.44-.91,12.43,0,0,6.19-1.77,7.53S19.5,36.78,18,35.4Zm4.76,12.26v.08l-.31-.21Z"/><path class="cls-1" d="M35.1,28.65c-.9.83.17,4.7,1.83,5.92s6.65,1.2,8.07-.06,1.39-5.29.76-6S36,27.82,35.1,28.65Z"/><path class="cls-1" d="M28.65,28.65c-.91-.83-10-.77-10.65-.1s-.67,4.7.75,6,6.42,1.29,8.08.06S29.56,29.48,28.65,28.65Z"/><path class="cls-2" d="M40.65,87.72l-3.31-1.51a12.72,12.72,0,0,0,.18-2.06,12.89,12.89,0,0,0-.22-2.34l3.14-1.3-2-5-3.2,1.32a12.44,12.44,0,0,0-3.08-3.06l1.36-3.33-5-2-1.35,3.31a11.8,11.8,0,0,0-4.38,0l-1.6-3.36-4.85,2.3,1.46,3.08a12.65,12.65,0,0,0-3.17,3.15l-3.33-1.37-2,5,3.28,1.35a13.15,13.15,0,0,0-.21,2.28,13,13,0,0,0,.18,2.08L9.24,87.57l2,5,3.19-1.32a12.83,12.83,0,0,0,3.23,3.26l-1.29,3.13,5,2,1.27-3.1a12.92,12.92,0,0,0,2.26.21,12.11,12.11,0,0,0,2.18-.2L28.73,100l4.84-2.31-1.49-3.15a12.59,12.59,0,0,0,3.28-3.31l3.06,1.39ZM16.26,84.15a8.66,8.66,0,1,1,8.66,8.66A8.66,8.66,0,0,1,16.26,84.15Z"/><path class="cls-3" d="M27.79,82.66H22.1V77h5.69Zm-5.08-.61h4.47V77.58H22.71Z"/><path class="cls-3" d="M27.79,91H22.1V85.3h5.69Zm-5.08-.6h4.47V85.9H22.71Z"/><rect class="cls-3" x="30.26" y="77.86" width="18.9" height="1.29"/><rect class="cls-3" x="30.26" y="80.14" width="15.97" height="1.29"/><rect class="cls-3" x="30.26" y="85.6" width="14.22" height="1.29"/><rect class="cls-3" x="30.26" y="88.14" width="17.61" height="1.29"/><rect class="cls-3" x="23.76" y="79.46" width="0.76" height="1.9" transform="translate(-51.48 43.92) rotate(-47.53)"/><rect class="cls-3" x="23.79" y="79.54" width="3.16" height="0.74" transform="translate(-50.71 44.67) rotate(-47.53)"/></g></g></svg>