<svg xmlns="http://www.w3.org/2000/svg" viewBox="0 0 87.52 140.91"><defs><style>.cls-1{fill:#f6d8b4;}</style></defs><title>Developer v2</title><g id="Layer_2" data-name="Layer 2"><g id="Layer_8" data-name="Layer 8"><path class="cls-1" d="M82,101.33c1.68-8.8,3.62-24.16-5.38-34.35s-4-14.53-3-25.56C74.71,28.82,63.87-5.33,32.9.71,32.9.71,18.72-1,10.48,11.9s-11.15,29.44-9,33.49C8.63,59-3,71.87.79,87.58s56-16.5,57.88,2.27c2.89,28.76,16.94,44,28.85,39.29C87.52,129.14,80.35,110.14,82,101.33ZM61.59,42.8C60.5,51.47,55.88,59.12,51,64.41l-2.83,16.9-18.82-1-1.63-14.2c-6.2-5-12.49-13-13.73-23.27C11.71,24.5,19.4.71,38.49,1,59.8,1.36,64,23.81,61.59,42.8Z"/><path class="cls-1" d="M43.29,1S50.8,16.9,38.54,24.16s-31,14.5-31,14.5S9.28,7.92,20.15,3.44,41,0,43.29,1Z"/><path class="cls-1" d="M55.38,24.68A25.4,25.4,0,0,1,69.19,42.8s-6-49.9-28.67-40.75C30.61,6.07,42.43,18.49,55.38,24.68Z"/><circle class="cls-1" cx="44.7" cy="99.18" r="9.33" transform="matrix(0.83, -0.56, 0.56, 0.83, -47.79, 41.9)"/><path class="cls-1" d="M62.63,75.61c-6.79-1.86-6.76-1.9-13.26-1.74,0,0-5.91,4.11-10.14,4.16-5.33,0-10.63-3.9-10.63-3.9s-14.32-.77-18.81,6-2.24,59.12-2.24,59.12l65,1.69S73.33,78.54,62.63,75.61Zm-1.07,43-10.05-10A11.6,11.6,0,1,1,54.08,106l10,10.05Z"/><path class="cls-1" d="M40.46,41.82s2.07,7.7,3.2,8.48-3.2,2.19-3.2,2.19a2.89,2.89,0,0,0,1.48-1.68C42.53,49.43,40.59,44,40.46,41.82Z"/></g></g></svg>