<svg xmlns="http://www.w3.org/2000/svg" viewBox="0 0 68.05 56.72"><defs><style>.cls-1{fill:#f6d8b4;}</style></defs><title>Org 3</title><g id="Layer_2" data-name="Layer 2"><g id="Layer_12" data-name="Layer 12"><path class="cls-1" d="M64.68,53.35V23.63L52.06,20l-.26,33.7-1.75-.36V7.12L18.32,0V53.71H16.06V11.59L3.37,15,2.72,53.71H0v3H7.06V51.8l5.11.13v4.79H27.84l.07-12.63,12.3.13v12.5h15.6l.26-4.92h4.86L61,56.72h7.06V53.35ZM12.17,49.14H7.32V44.29h4.85Zm0-8.58H7.32V35.71h4.85Zm0-8.15H7.32V27.55h4.85Zm0-8.71H7.32V18.84h4.85Zm15,17.09H22.34V35.94h4.85Zm0-8.58H22.34V27.36h4.85Zm0-8.16H22.34V19.2h4.85Zm0-8.7H22.34V10.49h4.85Zm9.26,25.44H31.6V35.94h4.85Zm0-8.58H31.6V27.36h4.85Zm0-8.16H31.6V19.2h4.85Zm0-8.7H31.6V10.49h4.85Zm9.26,25.44H40.86V35.94h4.85Zm0-8.58H40.86V27.36h4.85Zm0-8.16H40.86V19.2h4.85Zm0-8.7H40.86V10.49h4.85ZM60.77,48.92H55.91V44.06h4.86Zm0-8.16H55.91V35.9h4.86Zm0-8.71H55.91V27.19h4.86Z"/></g></g></svg>