<svg xmlns="http://www.w3.org/2000/svg" viewBox="0 0 99.13 157.16"><defs><style>.cls-1{fill:#686868;}</style></defs><title>Parent 2_1</title><g id="Layer_2" data-name="Layer 2"><g id="Layer_4" data-name="Layer 4"><path class="cls-1" d="M75.75,5.16c-2.91-.46-7.35,2.7-10.12,6.24h0c-2.65,2.84-4.77,6.5-5,8.52-.92,7.1-5.38,9.69-6.31,10.31s-2.61,2.15-1.69,3.38a21.74,21.74,0,0,0,2.46,2.62s-1.23,2.46-.92,3.23a5.59,5.59,0,0,0,1.69,1.69,1.26,1.26,0,0,0-1.07,1.23c0,1.08-1.13,4.85-.93,6.16.31,2,5.39,2.77,8.77,2.61,0,0-3.38,6-4.46,6.77S46.9,59,46.9,59s.46-12.15-1.08-13.69S38.44,40.55,36,40.55s-2.31-3.69-2.31-3.69-.31-3.7,1.84-5.54,5.08-.31,6.93-5.39S46.9,3.62,35.67,1.78,20.59-2.07,16.44,4.7s-5.23,11.54-3.69,17.08.46,9.23,2.92,11.38,2,2.77,2,2.77l-3.39-2s-5.07,1.59-7.23,4.51c-3,4-4.15,25.39-3.54,30.62C4,73-1.25,85.32.28,87.32a6.7,6.7,0,0,1,1.39,5.54c-.31,1.53,4.66,21,9.54,21.69,4.61.61,16-3.39,17.38-4.62s-13.33,43.44-13.33,43.44,36.82,5.43,54.36,3.28c0,0,.52-23.47,3.89-34.05,5.1-15.94,18.66-39.77,8.5-57.38-1.15-5.54,5-9.94,8.53-16.26C99.61,32.84,99.9,9,75.75,5.16Z"/><path class="cls-1" d="M73.59,4.39C71.52,4.25,68.51,6.32,67.75,7s-6.39.69-7.7,2.15-5,5.16-5,5.16,3.46-.31,5.62-.46,3,2.53,3,2.53l30,16s-1.11,12.26-.41,13.34,5.92-16,5.92-17.67a20.69,20.69,0,0,0-1.38-6.77C97,19.7,91.13,11.16,90.28,10.7s3.77-.54,3.77-.54-2.54-1.07-4-.77S88.67,7,88.67,7L87.51,8.93S82.44,5,73.59,4.39Z"/></g></g></svg>