<svg xmlns="http://www.w3.org/2000/svg" viewBox="0 0 103.38 79.15"><defs><style>.cls-1{fill:#f6d8b4;}</style></defs><title>school v2</title><g id="Layer_2" data-name="Layer 2"><g id="Layer_6" data-name="Layer 6"><path class="cls-1" d="M103.38,47.54,95.62,25.31l-31.85.07.08-4.23,3,1.85,1.84-3.23-16-11.24V6s3.46-.62,4.69.15a16.81,16.81,0,0,0,4.54,1.23s-1.15-3.76-4.07-5.15a7.67,7.67,0,0,0-5.16-.69V0h-1V8.46L35.31,19.15l2,3.77,2.31-1.61v3.54l-33,.38L0,48.23v2.69H2.92L2.54,75.08H.77l.08,4.07h101.3V75.54h-1.77l-.23-24.16,3.23-.07Z"/></g></g></svg>