<svg xmlns="http://www.w3.org/2000/svg" viewBox="0 0 204.45 393.89"><defs><style>.cls-1{fill:#f6d8b4;}.cls-2{fill:#fff;}</style></defs><title>Specialist V2</title><g id="Layer_2" data-name="Layer 2"><g id="Layer_2-2" data-name="Layer 2"><path class="cls-1" d="M70.85,2C37,9.23,25.58,44.89,23.17,56.12c-2.89,13.45.82,46.36,2,51.28s16.41,42.66,30.36,44.31,11.49,0,11.49,0,3.28,14.35,1.23,16.82-36.51,18.87-41.85,25S7.58,204.22,2.25,248.94s.5,108.94.5,108.94,22.72,31.82,94.8,35.71c76.7,4.15,96.72-36.14,100-51.32s16.73-146.52-6.25-159.65-50.69-20.76-53.57-26.09-18.46-26.16-16.1-47.08c1.29-11.42,19.28-17.64,15.59-52.1A124.06,124.06,0,0,0,133.13,36C125.43,9.57,107.59-5.77,70.85,2Z"/><path class="cls-1" d="M148.71,28.22c13.54,10.67,18,56.2,18.87,71s10.26,70.57,0,70.36-27.49-32.2-28.72-54.77,1.64-44.72-7.79-50.87S111.23-1.31,148.71,28.22Z"/><path class="cls-2" d="M31.17,328.32s11.7-18.51,11.24-26.76c-.24-4.41-11.1,5.24-11.24-.32-.43-17.81-.43-49.65,3.9-61.33,8.2-22.15,27.9-61.95,33.23-66S69,164,69,164s-22,32-28.14,44.3A156.33,156.33,0,0,0,24.4,280.94C24.81,316.22,20.5,325,31.17,328.32Z"/><path class="cls-2" d="M125.74,134.25s4.1,6.38,4.92,8,9.43,32.82-6.57,71.38c0,0,17.23,3.71,7,28.32s-39.8,85.74-43.9,87.79a30.21,30.21,0,0,1-25,0c-10.66-4.93-8.61-6.16-8.61-6.16l4.1-3.69,6.57,5.74s12.3,6.57,17.64,1.24,36.1-68.52,36.1-68.52,12.72-22.56,8.61-30.77S113.63,216.77,106,221c-17.84,10.05-23,34.46-31.18,64s-7,39.79-7,39.79,21.33,3.39,20.51,7.65,1.23,12-4.92,9.17S60.09,333,61.73,319.91s21-79.27,26.91-91.87c6.77-14.35,17.25-15.21,23.07-15.21S128.2,190.68,128.2,180s0-32.41-2.06-33.64S125.74,134.25,125.74,134.25Z"/><path class="cls-2" d="M41.35,101.05s-.78,12.47-2.47,13.81,6.1,7.11,7.55,6.51-2.68-2.74-3.57-5.7,1.37-25.53-.8-27S41.49,93,41.35,101.05Z"/></g></g></svg>